<?xml version="1.0" standalone="no"?>
<!DOCTYPE svg PUBLIC "-//W3C//DTD SVG 20010904//EN"
 "http://www.w3.org/TR/2001/REC-SVG-20010904/DTD/svg10.dtd">
<svg version="1.0" xmlns="http://www.w3.org/2000/svg"
 width="568.000000pt" height="568.000000pt" viewBox="0 0 568.000000 568.000000"
 preserveAspectRatio="xMidYMid meet">

<g transform="translate(0.000000,568.000000) scale(0.100000,-0.100000)"
fill="#000000" stroke="none">
<path d="M857 4822 l-827 -827 0 -1155 0 -1155 822 -822 823 -823 1165 0 1165
0 818 818 817 817 0 1165 0 1165 -823 823 -822 822 -1155 0 -1155 0 -828 -828z
m3011 661 c-9 -33 -260 -638 -268 -647 -5 -4 -43 3 -87 17 -226 75 -385 100
-633 100 -235 0 -290 -3 -290 -16 0 -5 -13 -7 -32 -3 -17 3 -28 3 -24 -1 4 -4
-14 -12 -40 -18 -38 -8 5 -10 197 -11 259 -1 321 -8 539 -61 215 -52 475 -167
680 -301 255 -167 484 -393 649 -643 515 -776 420 -1714 -244 -2414 -65 -68
-58 -58 67 95 78 95 82 100 75 100 -3 0 -35 -37 -70 -83 -36 -45 -101 -118
-146 -161 -44 -44 -77 -84 -74 -89 3 -6 1 -7 -5 -3 -7 4 -39 -16 -74 -45 -125
-104 -288 -201 -518 -308 l-25 -11 25 6 c14 3 72 28 130 56 131 61 120 47 -15
-21 -347 -173 -736 -255 -1095 -231 -74 5 -148 9 -165 9 -27 0 -28 -1 -8 -9
59 -24 341 -63 438 -60 33 0 88 1 122 0 125 -1 370 46 543 104 41 14 76 24 78
21 9 -9 273 -658 269 -662 -8 -8 -2067 -16 -2067 -8 0 14 274 670 282 676 4 3
-29 21 -75 40 -96 40 -114 46 -69 22 21 -11 32 -23 29 -33 -2 -8 -64 -160
-138 -338 l-133 -323 -733 733 c-403 403 -729 736 -725 739 11 11 645 272 660
272 7 0 11 3 10 6 -2 3 -11 27 -22 54 -10 26 -21 47 -25 47 -3 0 -157 -63
-341 -139 l-335 -139 -3 1036 c-1 569 0 1037 2 1039 2 2 156 -59 342 -136 186
-77 339 -139 339 -138 1 1 11 25 23 52 l21 50 -22 6 c-34 10 -648 267 -655
274 -6 6 1201 1219 1369 1375 l96 90 137 -329 c75 -181 136 -333 136 -340 0
-7 19 -3 53 10 28 11 53 22 54 23 2 1 -60 154 -137 340 -77 186 -140 340 -140
342 0 2 466 4 1036 4 982 0 1036 -1 1032 -17z m1570 -1498 c-8 -9 -646 -275
-658 -275 -5 0 -12 10 -16 23 -12 39 -115 220 -172 302 -205 296 -470 530
-788 696 -54 29 -98 57 -96 63 3 10 211 514 254 615 l19 45 732 -732 c402
-402 728 -734 725 -737z m48 -2172 c-3 -3 -272 105 -592 238 l-71 30 34 107
c134 423 135 879 3 1295 l-38 119 51 21 c28 12 178 74 332 137 l280 115 3
-1029 c1 -566 0 -1031 -2 -1033z m-51 -114 c6 -6 -254 -273 -720 -739 -401
-401 -732 -726 -736 -722 -5 5 -251 595 -275 657 -2 6 21 21 51 34 80 34 253
141 358 220 252 189 473 451 616 731 l51 98 322 -135 c178 -74 327 -139 333
-144z"/>
<path d="M2788 4833 c28 -2 76 -2 105 0 28 2 5 3 -53 3 -58 0 -81 -1 -52 -3z"/>
<path d="M2643 4823 c15 -2 39 -2 55 0 15 2 2 4 -28 4 -30 0 -43 -2 -27 -4z"/>
<path d="M2978 4823 c18 -2 45 -2 60 0 15 2 0 4 -33 4 -33 0 -45 -2 -27 -4z"/>
<path d="M2558 4813 c12 -2 30 -2 40 0 9 3 -1 5 -23 4 -22 0 -30 -2 -17 -4z"/>
<path d="M3174 4799 c60 -10 111 -17 113 -15 6 5 -167 36 -197 35 -14 0 24 -9
84 -20z"/>
<path d="M2493 4803 c9 -2 23 -2 30 0 6 3 -1 5 -18 5 -16 0 -22 -2 -12 -5z"/>
<path d="M2790 4798 c-39 -11 -80 -44 -80 -65 0 -8 -7 -16 -15 -19 -11 -5 -13
-10 -5 -19 5 -6 7 -14 4 -17 -3 -4 2 -20 10 -37 21 -40 22 -77 1 -41 -8 14
-14 20 -15 14 0 -5 6 -19 14 -30 14 -18 15 -18 21 -1 4 9 2 31 -5 48 -7 16
-10 32 -6 36 3 3 1 13 -6 20 -9 11 -9 16 2 23 8 5 18 6 24 3 5 -3 6 -2 3 4 -3
5 8 20 25 33 25 18 32 20 39 9 7 -11 9 -9 9 6 1 18 2 17 15 -5 14 -25 15 -25
10 10 l-5 35 14 -29 c8 -18 15 -24 18 -16 3 10 12 8 36 -10 17 -13 28 -28 25
-33 -3 -6 -2 -8 3 -5 5 3 15 0 21 -8 8 -8 9 -15 3 -19 -6 -4 -8 -11 -4 -16 3
-6 0 -23 -6 -39 -7 -16 -9 -38 -5 -47 6 -17 7 -17 21 1 8 11 14 25 14 30 -1 6
-7 0 -15 -14 -21 -36 -20 1 1 41 8 17 13 33 10 37 -3 3 -1 11 4 17 8 9 6 14
-5 19 -31 12 -13 21 36 17 49 -3 50 -4 45 -30 l-6 -26 14 24 c31 55 106 67
155 25 17 -14 31 -36 31 -47 0 -19 3 -17 20 11 11 17 28 32 37 32 32 0 256
-80 351 -125 75 -36 199 -106 270 -153 10 -7 10 -21 -3 -73 -19 -83 -19 -123
2 -140 15 -13 15 -12 5 8 -24 43 -9 85 35 98 17 4 30 -1 49 -20 14 -14 24 -21
22 -14 -2 7 -16 22 -31 33 -22 16 -31 18 -52 8 -22 -10 -25 -9 -25 8 0 12 9
22 24 26 50 12 110 -26 121 -78 6 -26 9 -28 41 -22 43 8 113 -25 137 -65 19
-33 22 -102 6 -134 -7 -12 -23 -35 -35 -50 -28 -34 -30 -58 -6 -84 9 -10 14
-14 10 -9 -5 6 -8 25 -8 42 0 33 28 64 57 64 22 0 53 -39 53 -65 0 -14 -9 -34
-20 -45 -11 -11 -20 -22 -20 -25 0 -3 0 -9 0 -14 0 -5 -12 -12 -27 -14 l-28
-5 29 2 c23 1 34 10 55 47 32 58 23 96 -26 119 -18 8 -31 20 -29 25 6 19 61 6
84 -20 33 -38 29 -86 -13 -155 -19 -32 -35 -60 -35 -64 0 -3 16 -31 36 -62 58
-91 141 -271 176 -383 26 -83 38 -105 56 -112 29 -11 20 -29 -16 -30 -17 -1
-21 -3 -9 -6 9 -2 14 -9 11 -15 -4 -6 23 13 60 42 37 29 65 58 63 64 -2 6 -12
38 -21 70 -37 128 -119 307 -199 439 -40 66 -43 68 -74 63 -52 -8 -36 25 18
39 29 7 40 -6 122 -151 77 -137 187 -416 187 -477 0 -9 -29 -37 -65 -62 -69
-50 -85 -79 -66 -121 6 -13 22 -29 36 -34 81 -31 134 90 54 124 -26 11 -28 14
-15 25 18 15 47 2 70 -31 55 -78 -41 -186 -126 -143 -26 12 -28 12 -18 0 19
-23 73 -28 114 -11 72 30 84 135 20 185 -25 20 -25 20 -5 33 12 7 21 20 21 28
0 8 -21 76 -46 150 -49 148 -115 290 -195 418 -45 73 -54 83 -75 79 -21 -4
-24 0 -24 25 0 45 -26 85 -67 103 -36 16 -38 19 -38 65 0 60 -24 96 -86 128
-30 16 -54 22 -76 18 -28 -4 -33 -2 -33 15 0 33 -53 78 -99 85 -35 6 -41 10
-41 30 0 19 -16 34 -71 70 -103 67 -317 167 -446 208 -122 39 -143 42 -161 24
-9 -9 -18 -6 -38 13 -24 23 -33 24 -147 25 -102 1 -128 4 -162 21 -53 28 -83
33 -125 21z m-23 -33 c-32 -28 -57 -34 -36 -9 12 14 44 32 59 33 3 0 -8 -11
-23 -24z m160 -7 c18 -21 18 -21 -14 -4 -37 19 -51 36 -24 29 11 -3 28 -14 38
-25z m1507 -920 c76 -119 165 -318 205 -460 l19 -66 -31 -22 c-23 -18 -35 -21
-54 -14 -20 7 -31 29 -62 119 -41 123 -108 267 -169 365 -39 63 -39 66 -24 92
9 15 23 29 31 31 41 11 52 5 85 -45z m241 -651 c22 -31 18 -53 -11 -76 -34
-27 -40 -26 -70 4 -28 28 -26 58 7 87 23 20 54 13 74 -15z"/>
<path d="M2438 4793 c6 -2 18 -2 25 0 6 3 1 5 -13 5 -14 0 -19 -2 -12 -5z"/>
<path d="M2345 4775 c-54 -17 -33 -18 30 -1 28 8 41 14 30 14 -11 0 -38 -5
-60 -13z"/>
<path d="M3320 4770 c34 -11 60 -11 35 0 -11 5 -29 8 -40 8 -16 0 -15 -2 5 -8z"/>
<path d="M2278 4753 c7 -3 16 -2 19 1 4 3 -2 6 -13 5 -11 0 -14 -3 -6 -6z"/>
<path d="M3459 4729 c47 -16 86 -27 88 -25 5 5 -147 56 -162 55 -6 0 28 -14
74 -30z"/>
<path d="M2443 4722 c-27 -28 -28 -28 -43 -9 -16 20 -17 20 -93 -3 -43 -13
-75 -25 -73 -27 2 -3 35 5 73 17 l68 21 19 -25 19 -24 32 34 c27 28 39 34 74
34 78 0 122 -72 90 -144 -10 -22 -30 -35 -89 -60 -8 -3 -1 -4 15 -1 96 18 131
130 60 193 -40 34 -115 31 -152 -6z"/>
<path d="M2782 4720 c-12 -10 -22 -26 -21 -37 0 -16 1 -16 8 2 5 11 12 20 17
21 5 0 17 4 28 9 11 5 26 3 38 -4 17 -11 19 -10 16 6 -4 24 -57 26 -86 3z"/>
<path d="M2125 4705 c-25 -12 -26 -14 -5 -9 28 7 60 23 45 23 -5 0 -23 -6 -40
-14z"/>
<path d="M3102 4704 c-46 -32 -16 -126 41 -123 20 1 20 2 2 6 -53 13 -72 66
-35 103 26 26 46 25 75 -5 14 -13 25 -21 25 -16 0 15 -47 51 -66 51 -11 0 -30
-7 -42 -16z"/>
<path d="M2477 4698 c-30 -24 -37 -60 -15 -90 11 -16 24 -28 29 -28 5 0 1 10
-11 22 -23 25 -24 29 -8 63 12 27 47 41 73 31 9 -3 13 -2 10 4 -9 14 -58 12
-78 -2z"/>
<path d="M3570 4690 c8 -5 20 -10 25 -10 6 0 3 5 -5 10 -8 5 -19 10 -25 10 -5
0 -3 -5 5 -10z"/>
<path d="M2050 4675 c-14 -8 -20 -14 -15 -14 6 0 21 6 35 14 14 8 21 14 15 14
-5 0 -21 -6 -35 -14z"/>
<path d="M3282 4665 c-11 -13 -23 -21 -27 -17 -6 5 2 -88 8 -95 1 -1 16 -4 32
-7 l30 -6 -27 11 c-23 9 -28 17 -28 44 0 18 8 43 19 56 l18 23 62 -17 c187
-52 499 -209 512 -258 7 -24 7 -24 8 -1 1 17 -15 33 -70 68 -126 82 -287 151
-506 219 -7 2 -21 -7 -31 -20z"/>
<path d="M2265 4655 c-156 -50 -275 -104 -413 -187 l-83 -50 7 -36 c7 -37 7
-37 -14 -18 -11 10 -23 28 -25 40 -4 21 -4 21 -6 0 -1 -17 -6 -20 -28 -17 -24
3 -23 2 7 -10 19 -7 53 -25 75 -38 67 -43 71 -44 38 -12 -23 21 -33 40 -33 60
0 26 9 35 80 77 158 94 459 216 496 202 9 -3 12 -1 9 4 -9 14 -30 11 -110 -15z"/>
<path d="M2810 4671 c0 -5 9 -7 20 -4 11 3 20 7 20 9 0 2 -9 4 -20 4 -11 0
-20 -4 -20 -9z"/>
<path d="M3634 4663 c41 -22 96 -44 96 -39 0 5 -109 56 -119 56 -3 -1 7 -8 23
-17z"/>
<path d="M2095 4636 c-130 -53 -345 -172 -361 -198 -4 -5 30 13 74 40 93 59
210 118 307 157 39 15 72 29 74 31 12 11 -22 0 -94 -30z"/>
<path d="M2581 4644 c0 -11 3 -14 6 -6 3 7 2 16 -1 19 -3 4 -6 -2 -5 -13z"/>
<path d="M1928 4619 c-32 -16 -58 -32 -58 -34 0 -5 119 52 129 61 13 12 -22
-1 -71 -27z"/>
<path d="M2388 4639 c6 -7 12 -21 12 -32 0 -10 4 -16 9 -12 14 8 31 -28 25
-51 -4 -15 -31 -28 -115 -53 -60 -19 -160 -59 -222 -88 -119 -58 -247 -133
-247 -145 0 -4 32 13 71 38 97 63 273 145 392 183 53 17 104 31 112 31 29 0
29 48 -1 91 -15 22 -32 43 -38 46 -6 3 -5 0 2 -8z"/>
<path d="M3206 4635 c-3 -8 -1 -15 4 -15 6 0 10 7 10 15 0 8 -2 15 -4 15 -2 0
-6 -7 -10 -15z"/>
<path d="M2760 4632 c0 -14 38 -51 53 -52 4 0 7 5 7 11 0 5 -4 8 -9 5 -5 -4
-19 6 -30 21 -11 16 -21 22 -21 15z"/>
<path d="M2872 4610 c-7 -12 -17 -18 -22 -15 -5 3 -11 1 -15 -5 -10 -17 19
-11 43 9 22 20 28 31 14 31 -4 0 -13 -9 -20 -20z"/>
<path d="M3770 4600 c8 -6 53 -33 100 -61 162 -96 349 -254 489 -414 29 -33
39 -42 23 -20 -125 167 -398 395 -577 481 -27 13 -43 20 -35 14z"/>
<path d="M1834 4564 c-18 -14 -18 -15 4 -4 12 6 22 13 22 15 0 8 -5 6 -26 -11z"/>
<path d="M3196 4565 c-11 -8 -34 -16 -50 -16 -30 -2 -30 -2 -4 -6 24 -4 88 20
88 32 0 9 -15 4 -34 -10z"/>
<path d="M2910 4555 c0 -8 2 -15 4 -15 2 0 6 7 10 15 3 8 1 15 -4 15 -6 0 -10
-7 -10 -15z"/>
<path d="M2780 4553 c0 -6 -9 -9 -22 -6 -14 3 -8 -3 14 -16 48 -27 79 -27 109
0 13 11 18 18 12 14 -7 -3 -13 0 -13 7 0 8 -3 9 -8 3 -4 -6 -23 -10 -42 -10
-19 0 -38 4 -42 10 -5 6 -8 6 -8 -2z m75 -23 c4 -6 -7 -10 -25 -10 -18 0 -29
4 -25 10 3 6 15 10 25 10 10 0 22 -4 25 -10z"/>
<path d="M1784 4534 c-18 -14 -18 -15 4 -4 12 6 22 13 22 15 0 8 -5 6 -26 -11z"/>
<path d="M3379 4519 c30 -10 56 -17 58 -15 5 5 -86 36 -101 35 -6 0 13 -9 43
-20z"/>
<path d="M3298 4503 c7 -3 16 -2 19 1 4 3 -2 6 -13 5 -11 0 -14 -3 -6 -6z"/>
<path d="M3489 4479 c24 -11 46 -18 48 -15 4 4 -73 36 -85 35 -4 0 13 -9 37
-20z"/>
<path d="M1643 4439 c-29 -22 -53 -42 -53 -45 0 -2 25 14 55 37 48 36 62 49
53 49 -2 0 -27 -18 -55 -41z"/>
<path d="M3430 4460 c8 -5 20 -10 25 -10 6 0 3 5 -5 10 -8 5 -19 10 -25 10 -5
0 -3 -5 5 -10z"/>
<path d="M3571 4446 c10 -9 89 -46 89 -41 0 5 -75 45 -86 45 -4 0 -5 -2 -3 -4z"/>
<path d="M3580 4396 c0 -2 7 -7 16 -10 8 -3 12 -2 9 4 -6 10 -25 14 -25 6z"/>
<path d="M1477 4300 c-92 -87 -193 -201 -251 -285 l-28 -40 29 34 c15 19 59
73 97 119 37 46 69 82 70 80 1 -2 0 -29 -2 -60 -3 -41 -8 -58 -18 -58 -7 0
-28 -14 -46 -31 l-33 -31 33 26 c19 15 47 26 65 27 18 0 26 3 20 6 -21 8 -16
91 7 128 26 42 90 69 140 60 19 -3 52 -20 73 -36 21 -17 43 -28 50 -26 7 3 5
6 -5 6 -10 1 -22 10 -28 20 -33 62 26 113 93 80 21 -10 21 -10 3 5 -44 35
-116 9 -116 -42 0 -24 -10 -28 -27 -11 -14 14 -88 17 -123 6 -18 -6 -6 9 40
52 36 33 62 60 59 61 -3 0 -49 -41 -102 -90z"/>
<path d="M3690 4387 c0 -3 15 -14 33 -25 19 -11 47 -27 63 -37 l29 -17 -25 20
c-29 24 -100 66 -100 59z"/>
<path d="M1619 4351 c-16 -16 -29 -38 -29 -48 1 -11 6 -6 15 14 7 17 26 38 42
47 15 8 22 15 15 16 -8 0 -27 -13 -43 -29z"/>
<path d="M3864 4330 c-5 -30 -14 -45 -33 -55 -16 -9 -20 -14 -10 -15 23 0 46
30 53 73 4 20 5 37 2 37 -3 0 -9 -18 -12 -40z"/>
<path d="M1784 4296 c17 -14 18 -18 5 -53 -10 -26 -26 -44 -49 -55 -19 -10
-27 -18 -18 -18 43 0 113 96 85 118 -22 16 -42 24 -23 8z"/>
<path d="M4005 4235 c-11 -11 -20 -27 -20 -35 0 -8 -13 -18 -30 -21 l-30 -7
30 -1 c25 -1 33 6 53 41 26 48 25 52 -3 23z"/>
<path d="M4037 4199 c-25 -53 -27 -63 -17 -94 14 -44 62 -79 95 -71 15 4 29 0
39 -10 9 -8 16 -11 16 -6 0 5 14 26 30 47 35 44 39 86 11 131 -24 39 -76 59
-114 45 -20 -8 -26 -7 -29 3 -2 8 -16 -13 -31 -45z m148 -4 c52 -51 17 -130
-63 -145 -23 -4 -39 -3 -36 1 4 8 -8 13 -27 11 -3 -1 -6 4 -7 11 -15 93 -14
98 9 123 31 33 91 33 124 -1z"/>
<path d="M1495 4236 c-46 -20 -67 -59 -63 -114 3 -41 7 -50 38 -69 34 -21 67
-23 118 -7 29 8 52 52 52 99 0 33 2 35 20 25 25 -14 25 -43 0 -95 -37 -76
-127 -98 -205 -50 -51 31 -76 31 -105 0 -18 -19 -22 -31 -17 -60 5 -30 3 -36
-9 -31 -9 3 -18 6 -20 6 -2 0 -4 10 -5 23 -1 21 -1 21 -8 -3 -6 -22 -3 -26 26
-34 41 -10 48 -5 33 24 -12 23 -6 52 16 75 21 21 50 19 74 -5 11 -11 20 -18
20 -15 0 3 9 1 20 -5 24 -13 25 -31 5 -69 -19 -38 -63 -55 -122 -48 -45 6 -46
5 -13 -4 64 -18 66 -39 14 -119 -67 -104 -138 -259 -181 -393 -35 -108 -40
-119 -65 -124 -26 -5 -27 -7 -13 -26 8 -12 15 -40 15 -62 0 -83 -96 -125 -166
-74 l-29 21 28 -26 c21 -19 39 -26 70 -26 49 0 81 19 102 60 19 36 19 57 1 92
-14 26 -13 28 7 33 19 5 28 25 57 117 36 119 121 303 189 410 35 55 40 71 32
87 -10 17 -7 20 19 26 36 8 80 58 80 91 0 21 4 24 39 24 73 0 141 71 141 148
0 26 -5 34 -27 43 -16 6 -38 20 -50 31 -13 12 -23 17 -23 12 0 -5 -4 -4 -8 3
-12 19 -55 24 -87 9z m102 -38 c32 -30 32 -90 -2 -123 -52 -53 -145 -14 -145
62 0 73 93 112 147 61z"/>
<path d="M2866 4234 c12 -33 16 -37 25 -23 10 16 12 35 2 26 -3 -4 -12 -2 -20
5 -11 9 -12 7 -7 -8z"/>
<path d="M1726 4225 c-11 -8 -15 -15 -9 -15 6 0 16 7 23 15 16 19 11 19 -14 0z"/>
<path d="M3063 4209 c-1 -12 5 -15 23 -11 18 3 26 -1 34 -22 12 -33 30 -34 30
-1 0 39 -84 73 -87 34z m77 -29 c0 -11 -2 -20 -4 -20 -2 0 -6 9 -9 20 -3 11
-1 20 4 20 5 0 9 -9 9 -20z"/>
<path d="M2573 4213 c-7 -2 -12 -17 -12 -31 1 -21 2 -23 6 -7 3 11 10 26 15
33 11 13 10 13 -9 5z"/>
<path d="M2490 4200 c0 -5 6 -10 14 -10 8 0 17 -8 19 -17 4 -17 5 -17 6 -1 0
10 -8 22 -19 28 -14 7 -20 7 -20 0z"/>
<path d="M2902 4190 c0 -14 2 -19 5 -12 2 6 2 18 0 25 -3 6 -5 1 -5 -13z"/>
<path d="M2941 4194 c0 -11 3 -14 6 -6 3 7 2 16 -1 19 -3 4 -6 -2 -5 -13z"/>
<path d="M2866 4175 c4 -8 8 -15 10 -15 2 0 4 7 4 15 0 8 -4 15 -10 15 -5 0
-7 -7 -4 -15z"/>
<path d="M3022 4170 c0 -14 2 -19 5 -12 2 6 2 18 0 25 -3 6 -5 1 -5 -13z"/>
<path d="M3198 4171 c-10 -13 -10 -14 2 -3 19 16 31 15 24 -2 -4 -10 2 -12 20
-9 26 5 27 4 42 -46 3 -9 8 -11 13 -5 11 11 19 54 10 51 -3 -1 -14 5 -24 13
-25 20 -72 21 -87 1z m105 -15 c3 3 3 -4 0 -17 -5 -16 -8 -19 -11 -9 -3 8 -12
24 -21 35 -16 20 -16 20 5 2 11 -9 23 -14 27 -11z"/>
<path d="M2349 4143 c-13 -16 -12 -17 4 -4 9 7 17 15 17 17 0 8 -8 3 -21 -13z"/>
<path d="M2951 4144 c0 -11 3 -14 6 -6 3 7 2 16 -1 19 -3 4 -6 -2 -5 -13z"/>
<path d="M2795 4128 c-14 -32 -49 -35 -69 -6 -18 25 -22 17 -6 -13 6 -10 21
-19 34 -19 25 0 60 32 54 50 -2 6 -8 0 -13 -12z"/>
<path d="M3181 4131 c0 -13 11 -40 27 -60 15 -19 30 -42 34 -51 5 -11 7 -11 7
-1 1 7 -12 30 -28 50 -16 20 -31 48 -34 61 l-4 25 -2 -24z"/>
<path d="M2275 4130 c-3 -5 1 -10 9 -10 8 0 20 -8 25 -17 6 -10 11 -13 11 -6
0 10 -26 43 -35 43 -2 0 -7 -4 -10 -10z"/>
<path d="M2532 4120 c0 -14 2 -19 5 -12 2 6 2 18 0 25 -3 6 -5 1 -5 -13z"/>
<path d="M2880 4120 c-18 -14 -27 -16 -33 -7 -6 8 -7 5 -3 -6 3 -10 6 -23 6
-29 0 -5 12 4 26 21 14 17 30 29 35 25 5 -3 9 0 9 5 0 16 -12 13 -40 -9z"/>
<path d="M3065 4100 c21 -22 41 -40 44 -40 3 0 -13 18 -34 40 -21 22 -41 40
-44 40 -3 0 13 -18 34 -40z"/>
<path d="M3393 4113 c9 -2 25 -2 35 0 9 3 1 5 -18 5 -19 0 -27 -2 -17 -5z"/>
<path d="M2922 4090 c0 -14 2 -19 5 -12 2 6 2 18 0 25 -3 6 -5 1 -5 -13z"/>
<path d="M2961 4094 c0 -11 3 -14 6 -6 3 7 2 16 -1 19 -3 4 -6 -2 -5 -13z"/>
<path d="M3464 4102 c6 -10 1 -11 -17 -7 -14 4 -35 2 -46 -4 -40 -22 -78 -129
-52 -145 5 -4 7 3 4 14 -3 11 -2 31 1 44 8 34 54 86 75 86 21 0 46 -26 55 -55
3 -11 3 -6 0 10 -7 46 -9 54 -19 62 -4 4 -5 2 -1 -5z"/>
<path d="M2542 4070 c0 -14 2 -19 5 -12 2 6 2 18 0 25 -3 6 -5 1 -5 -13z"/>
<path d="M2681 4074 c0 -11 3 -14 6 -6 3 7 2 16 -1 19 -3 4 -6 -2 -5 -13z"/>
<path d="M2998 4068 c-2 -19 -11 -24 -48 -29 l-45 -5 65 -6 c36 -3 80 -9 98
-13 36 -8 73 14 71 44 0 11 -3 8 -9 -6 -16 -38 -101 -41 -92 -4 2 9 -3 9 -16
2 -17 -9 -18 -7 -14 14 2 14 2 25 -1 25 -3 0 -7 -10 -9 -22z"/>
<path d="M2817 4062 c-21 -23 -13 -32 26 -32 18 0 27 4 24 13 -2 6 -14 10 -27
9 -21 -4 -22 -2 -11 12 19 22 8 20 -12 -2z"/>
<path d="M2120 4051 c0 -7 -4 -9 -10 -6 -5 3 -10 2 -10 -4 0 -5 4 -12 9 -15 4
-3 14 -26 21 -51 7 -25 15 -43 18 -41 2 3 -1 19 -7 37 -14 41 -5 55 22 32 18
-14 17 -12 -3 12 -14 17 -28 34 -32 40 -5 5 -8 4 -8 -4z"/>
<path d="M3170 4039 c0 -15 -5 -19 -15 -15 -8 3 -15 0 -15 -7 1 -14 63 -47 90
-47 29 0 60 36 59 68 -2 26 -2 27 -6 2 -3 -14 -12 -33 -20 -42 -18 -20 -69
-25 -57 -6 4 6 3 8 -4 4 -14 -9 -27 14 -23 42 1 12 0 22 -3 22 -3 0 -6 -9 -6
-21z"/>
<path d="M4487 3947 c80 -119 94 -137 73 -97 -19 37 -128 198 -138 204 -5 3
24 -45 65 -107z"/>
<path d="M2330 4045 c0 -5 5 -17 10 -25 5 -8 10 -10 10 -5 0 6 -5 17 -10 25
-5 8 -10 11 -10 5z"/>
<path d="M2687 4044 c-5 -6 -119 -33 -140 -34 -5 0 -5 6 -1 13 5 9 4 9 -6 0
-8 -7 -11 -15 -8 -19 9 -8 157 17 164 28 7 11 0 21 -9 12z"/>
<path d="M1291 4004 c0 -11 3 -14 6 -6 3 7 2 16 -1 19 -3 4 -6 -2 -5 -13z"/>
<path d="M2490 4006 c0 -8 -29 -23 -75 -37 -41 -13 -75 -28 -75 -33 0 -4 6 -6
13 -4 6 3 42 16 80 29 48 17 67 29 67 41 0 10 -2 18 -5 18 -3 0 -5 -6 -5 -14z"/>
<path d="M3511 3987 c-1 -10 -14 -32 -30 -48 -48 -47 -124 -38 -155 19 -10 18
-15 21 -16 10 0 -20 53 -66 87 -74 15 -4 39 0 59 9 34 17 69 69 60 90 -2 7 -5
4 -5 -6z"/>
<path d="M3608 3993 c7 -3 16 -2 19 1 4 3 -2 6 -13 5 -11 0 -14 -3 -6 -6z"/>
<path d="M4098 3993 c12 -2 32 -2 45 0 12 2 2 4 -23 4 -25 0 -35 -2 -22 -4z"/>
<path d="M3630 3979 c-30 -12 -58 -37 -72 -64 -6 -11 3 -5 19 13 32 33 72 42
90 20 16 -20 25 -80 11 -72 -7 5 -8 3 -3 -6 6 -10 14 -6 32 16 12 16 23 34 23
39 0 6 -10 -1 -21 -15 l-20 -25 4 32 c2 18 -1 29 -5 26 -5 -3 -8 3 -6 13 2 14
-2 18 -16 16 -11 -2 -15 1 -11 7 7 13 8 13 -25 0z"/>
<path d="M3534 3958 l-19 -23 23 19 c12 11 22 21 22 23 0 8 -8 2 -26 -19z"/>
<path d="M2191 3968 c2 -2 20 -16 39 -33 l35 -30 -29 33 c-17 17 -34 32 -40
32 -5 0 -7 -1 -5 -2z"/>
<path d="M1192 3888 c-50 -80 -122 -212 -122 -224 0 -5 24 34 53 86 79 145
110 189 132 193 19 4 19 4 -2 6 -16 1 -31 -14 -61 -61z"/>
<path d="M1956 3921 c-4 -5 3 -7 14 -4 11 3 27 0 35 -7 13 -11 14 -10 9 4 -7
17 -49 22 -58 7z"/>
<path d="M2286 3911 c-17 -11 -33 -18 -38 -15 -4 3 -8 0 -8 -5 0 -6 3 -11 8
-11 10 0 72 39 72 45 0 8 -2 7 -34 -14z"/>
<path d="M1383 3913 c9 -2 23 -2 30 0 6 3 -1 5 -18 5 -16 0 -22 -2 -12 -5z"/>
<path d="M2588 3904 c-26 -8 -49 -18 -52 -22 -3 -5 20 0 52 11 104 35 202 5
202 -61 0 -38 -28 -62 -73 -62 -45 0 -48 12 -7 27 52 20 36 83 -22 83 -62 0
-91 -87 -44 -135 18 -18 34 -23 68 -23 27 1 45 6 45 13 0 6 -12 9 -29 7 -16
-2 -39 3 -54 12 -21 14 -25 24 -22 54 2 26 8 38 21 40 9 2 17 -1 17 -7 0 -6
-7 -11 -15 -11 -21 0 -19 -43 3 -63 23 -21 45 -21 81 -2 32 16 41 33 41 74 0
38 -18 58 -65 70 -52 14 -89 13 -147 -5z m133 -50 c16 -19 3 -43 -29 -55 -28
-10 -28 -5 0 20 17 17 19 23 8 36 -7 8 -8 15 -2 15 5 0 15 -7 23 -16z"/>
<path d="M2935 3908 c-49 -13 -55 -21 -55 -74 0 -47 20 -70 67 -80 24 -5 36
-1 52 15 27 27 28 61 1 61 -11 0 -20 5 -20 11 0 6 10 9 23 7 17 -2 23 -10 25
-40 4 -48 -29 -73 -86 -65 -20 3 -31 3 -24 0 6 -2 10 -8 8 -12 -3 -4 16 -8 40
-9 27 -1 43 2 39 8 -3 5 1 7 9 4 9 -4 20 5 30 25 21 40 20 63 -5 95 -27 35
-85 37 -98 4 -11 -29 8 -62 38 -66 33 -5 14 -22 -24 -22 -43 0 -65 22 -65 65
0 50 35 70 120 69 92 -1 149 -33 279 -157 l106 -100 -106 105 c-64 65 -125
116 -156 132 -60 30 -141 40 -198 24z m38 -54 c-4 -10 1 -22 11 -29 10 -8 13
-16 8 -19 -18 -11 -42 6 -42 29 0 20 5 26 27 34 1 1 0 -6 -4 -15z"/>
<path d="M4248 3913 c7 -3 16 -2 19 1 4 3 -2 6 -13 5 -11 0 -14 -3 -6 -6z"/>
<path d="M1112 3843 c-47 -81 -92 -169 -92 -180 0 -4 23 34 50 86 28 51 59
109 71 127 11 19 18 34 15 34 -3 0 -23 -30 -44 -67z"/>
<path d="M1214 3843 c-64 -98 -142 -267 -186 -398 l-43 -126 28 -25 28 -24
-28 0 c-15 0 -36 7 -46 14 -16 12 -17 19 -7 56 6 23 9 44 7 46 -2 3 -10 -17
-16 -43 -12 -44 -11 -49 8 -62 20 -13 20 -14 -9 -41 -17 -15 -30 -34 -30 -42
0 -7 8 -1 17 14 19 30 52 48 88 48 32 0 32 15 1 35 l-24 16 20 70 c38 137 121
321 200 446 29 46 46 63 66 66 24 4 24 4 -6 6 -29 1 -36 -5 -68 -56z"/>
<path d="M1897 3893 c-12 -12 -7 -32 7 -27 8 3 31 -16 56 -48 57 -70 64 -77
52 -52 -6 11 -33 44 -60 72 -26 29 -46 55 -43 57 2 3 2 5 -1 5 -2 0 -8 -3 -11
-7z"/>
<path d="M3501 3882 c-2 -39 26 -80 64 -93 19 -7 35 -17 35 -21 0 -18 20 -6
40 25 l22 32 -25 -27 c-20 -21 -26 -24 -31 -13 -3 8 -16 15 -29 15 -30 0 -57
29 -67 72 -6 25 -8 27 -9 10z"/>
<path d="M3748 3875 c-3 -13 -1 -22 3 -19 5 3 9 12 9 20 0 9 5 12 12 8 7 -4 8
-3 4 4 -12 19 -23 14 -28 -13z"/>
<path d="M2161 3878 c0 -9 -4 -23 -7 -32 -8 -21 15 -20 41 0 20 16 20 16 -2
10 -17 -6 -22 -2 -26 16 -2 13 -5 16 -6 6z"/>
<path d="M2823 3883 c9 -2 25 -2 35 0 9 3 1 5 -18 5 -19 0 -27 -2 -17 -5z"/>
<path d="M970 3850 c-6 -11 -8 -20 -6 -20 3 0 10 9 16 20 6 11 8 20 6 20 -3 0
-10 -9 -16 -20z"/>
<path d="M2009 3843 c-11 -15 -11 -16 1 -5 20 18 57 15 69 -5 6 -10 11 -13 11
-7 1 33 -59 46 -81 17z"/>
<path d="M2346 3720 c-146 -140 -183 -164 -264 -175 -48 -6 -54 -10 -71 -43
-11 -21 -36 -53 -56 -72 -45 -43 -95 -115 -95 -137 0 -9 7 -24 16 -34 14 -16
14 -18 -6 -29 -16 -9 -19 -15 -11 -23 16 -16 13 -27 -7 -27 -10 0 -27 -6 -37
-14 -18 -13 -18 -14 2 -27 l21 -13 -24 -19 c-27 -21 -23 -37 8 -37 18 0 15 -6
-20 -36 -59 -50 -66 -66 -42 -96 12 -15 17 -33 13 -46 -6 -26 21 -72 43 -72
11 0 14 -5 9 -17 -84 -217 -6 -487 179 -617 62 -44 145 -90 151 -84 2 2 -26
19 -62 38 -97 50 -185 137 -228 224 -94 191 -84 370 30 553 24 38 27 48 10 28
-13 -16 -35 -49 -47 -73 -25 -46 -46 -51 -64 -14 -17 35 -7 57 55 125 l56 61
-52 -43 c-28 -24 -54 -50 -58 -59 -5 -14 -7 -14 -22 1 -26 26 -4 59 82 122 41
31 75 58 75 61 0 3 -15 -6 -33 -20 -32 -24 -87 -36 -87 -18 0 4 12 15 27 23
l26 17 -22 11 c-29 16 -19 28 32 36 37 7 39 9 20 16 -29 10 -29 25 -2 40 l21
11 -22 15 c-39 28 -7 80 60 98 21 6 20 4 -7 -14 -36 -23 -41 -42 -17 -62 14
-11 18 -11 29 4 7 10 16 14 19 9 8 -13 -3 -42 -16 -42 -6 0 -8 -6 -5 -14 3 -7
0 -19 -6 -25 -6 -6 -11 -20 -12 -32 -2 -21 -1 -21 13 -3 8 10 21 33 29 49 l14
30 -6 -30 c-4 -22 -3 -26 5 -15 11 17 13 60 4 84 -8 20 -43 21 -50 1 -4 -8
-10 -12 -15 -9 -17 10 11 44 36 44 32 0 39 -14 45 -90 l6 -65 11 55 12 55 -5
-60 c-3 -36 -16 -84 -34 -122 -16 -35 -27 -63 -24 -63 3 0 19 30 36 66 42 90
50 187 18 226 -11 15 -36 32 -53 37 -31 9 -31 9 -5 10 15 1 39 -10 55 -23 26
-22 28 -30 28 -93 0 -37 -3 -84 -7 -103 l-7 -35 16 35 c31 69 18 182 -26 218
-14 11 -13 11 7 2 39 -19 55 -55 55 -128 0 -59 1 -62 7 -27 20 102 -35 185
-122 185 -22 0 -22 0 4 28 14 15 30 35 35 45 7 14 23 19 59 21 27 2 63 11 79
20 17 10 21 14 10 10 -63 -21 -97 -26 -118 -17 -19 9 -14 11 33 18 83 11 120
35 258 167 70 67 134 127 142 135 8 7 11 13 8 13 -3 0 -67 -58 -142 -130z
m-359 -326 c-3 -3 -12 -4 -19 -1 -8 3 -5 6 6 6 11 1 17 -2 13 -5z m25 -61 c10
-9 18 -23 18 -32 -1 -12 -3 -11 -12 4 -6 11 -18 26 -26 33 -9 6 -12 12 -7 12
5 0 17 -7 27 -17z"/>
<path d="M3737 3792 c-31 -32 -57 -62 -57 -66 0 -5 25 18 55 52 39 43 61 59
72 55 11 -4 14 -3 9 5 -12 19 -19 15 -79 -46z"/>
<path d="M1356 3823 c-6 -14 -5 -15 5 -6 7 7 10 15 7 18 -3 3 -9 -2 -12 -12z"/>
<path d="M2115 3821 c-8 -25 -84 -93 -96 -85 -5 3 -9 -2 -9 -11 0 -18 7 -15
58 24 33 26 68 78 59 88 -3 2 -8 -5 -12 -16z"/>
<path d="M4628 3701 c31 -66 59 -118 61 -116 4 5 -106 235 -113 235 -2 0 21
-54 52 -119z"/>
<path d="M1821 3791 c-10 -6 -3 -9 22 -8 22 1 32 4 24 9 -16 10 -29 10 -46 -1z"/>
<path d="M3870 3782 c0 -7 6 -12 13 -12 6 0 -9 -12 -35 -27 -27 -14 -46 -28
-44 -30 2 -3 24 7 49 20 72 41 75 18 11 -76 -30 -44 -54 -84 -54 -90 0 -6 -14
2 -32 19 l-31 29 27 -37 c15 -20 31 -38 34 -40 4 -2 17 -21 28 -43 24 -44 44
-57 44 -27 0 13 21 32 62 58 34 21 66 40 70 42 3 2 8 -9 10 -25 l3 -28 6 31
c5 28 3 32 -16 29 -25 -2 -141 -79 -147 -96 -5 -16 -37 34 -44 69 -4 21 4 42
37 91 24 35 49 65 56 68 21 8 15 27 -17 58 -16 16 -30 23 -30 17z"/>
<path d="M922 3755 c-17 -37 -14 -45 4 -12 9 16 14 31 11 33 -2 2 -9 -7 -15
-21z"/>
<path d="M2818 3763 c12 -2 32 -2 45 0 12 2 2 4 -23 4 -25 0 -35 -2 -22 -4z"/>
<path d="M3627 3753 c-6 -10 99 -124 107 -116 3 3 -6 14 -19 25 -14 11 -25 26
-25 34 0 8 -6 14 -13 14 -18 0 -49 34 -40 43 3 4 4 7 0 7 -3 0 -8 -3 -10 -7z"/>
<path d="M3250 3725 c13 -14 26 -25 28 -25 3 0 -5 11 -18 25 -13 14 -26 25
-28 25 -3 0 5 -11 18 -25z"/>
<path d="M1764 3728 c-4 -6 -3 -8 4 -4 6 3 35 -14 64 -40 66 -57 79 -74 71
-88 -3 -6 8 2 25 18 18 17 32 37 32 45 0 10 -8 3 -20 -15 l-20 -30 -67 63
c-72 66 -78 70 -89 51z"/>
<path d="M2520 3733 c1 -20 20 -37 29 -28 7 7 4 14 -9 23 -11 7 -20 9 -20 5z"/>
<path d="M2568 3714 c3 -19 1 -25 -7 -20 -7 4 -15 -2 -21 -16 l-9 -23 -6 22
c-7 22 -33 39 -44 27 -3 -4 0 -9 7 -11 6 -3 12 -12 11 -21 0 -9 -3 -12 -5 -6
-5 13 -44 7 -44 -6 0 -4 9 -10 20 -13 29 -7 25 -25 -7 -29 -14 -2 -28 -9 -31
-16 -3 -9 3 -10 24 -2 33 13 52 -1 29 -20 -13 -11 -18 -11 -24 -1 -6 9 -13 5
-24 -13 -20 -29 -22 -48 -4 -26 20 25 45 23 43 -2 0 -13 4 -22 11 -21 8 2 10
-4 6 -14 -4 -11 -8 -13 -11 -5 -2 7 -8 10 -12 7 -5 -3 -7 4 -5 15 6 31 -12 24
-24 -10 -9 -27 -8 -30 7 -28 9 2 18 -5 20 -16 3 -15 0 -17 -14 -12 -12 4 -7
-4 11 -19 17 -15 24 -24 18 -20 -23 11 -14 -2 13 -20 15 -9 29 -13 33 -8 10
13 94 66 87 54 -4 -6 -3 -11 3 -11 14 0 31 34 31 62 0 18 -2 20 -10 8 -13 -20
-13 -4 0 21 8 14 7 19 -2 19 -9 0 -9 3 2 10 8 5 11 10 6 10 -5 0 -3 6 3 13 6
8 9 16 6 19 -3 3 2 11 12 19 11 9 14 10 9 2 -5 -9 -1 -13 11 -13 16 1 15 3 -6
20 -19 17 -21 21 -7 26 9 3 13 10 10 16 -4 5 -11 5 -18 -1 -17 -14 -56 14 -56
39 0 11 -9 24 -19 30 -28 14 -29 13 -23 -16z m16 -50 c3 -8 2 -12 -4 -9 -6 3
-10 10 -10 16 0 14 7 11 14 -7z m29 -39 c16 -11 17 -15 6 -19 -41 -13 -43 -14
-21 -15 29 -1 28 -13 -5 -37 -35 -25 -54 -21 -70 13 -17 35 -16 46 2 39 8 -3
15 -1 15 4 0 6 -4 10 -10 10 -5 0 -10 6 -10 14 0 17 64 11 93 -9z m-63 -159
c-7 -7 -13 -7 -20 0 -6 6 -3 10 10 10 13 0 16 -4 10 -10z"/>
<path d="M2548 3568 c5 -5 16 -8 23 -6 8 3 3 7 -10 11 -17 4 -21 3 -13 -5z"/>
<path d="M1723 3704 c-7 -19 31 -62 41 -46 3 6 -3 14 -15 17 -14 5 -19 13 -16
26 6 23 -1 25 -10 3z"/>
<path d="M2374 3688 l-19 -23 23 19 c21 18 27 26 19 26 -2 0 -12 -10 -23 -22z"/>
<path d="M2640 3691 c-14 -4 -20 -10 -14 -14 6 -3 20 0 30 8 21 16 20 16 -16
6z"/>
<path d="M3743 3683 c-7 -2 -13 -9 -13 -15 0 -6 6 -6 15 2 9 8 28 10 51 5 24
-4 34 -3 29 4 -6 11 -59 14 -82 4z"/>
<path d="M986 3584 c-15 -36 -25 -68 -23 -70 2 -2 16 26 30 63 15 37 25 68 23
70 -2 2 -16 -26 -30 -63z"/>
<path d="M3415 3631 c39 -45 104 -82 165 -93 33 -5 57 -14 54 -19 -8 -14 -43
-10 -101 10 -29 10 -50 14 -47 10 8 -14 105 -41 133 -37 24 4 31 -1 47 -30 10
-19 29 -41 41 -49 27 -18 21 -33 -10 -32 -21 1 -20 2 3 10 20 7 18 8 -14 4
-76 -8 -117 -62 -115 -147 2 -42 2 -41 9 12 8 64 22 95 50 110 25 13 40 12 17
-1 -45 -26 -58 -117 -31 -208 21 -71 25 -61 8 19 -23 114 11 192 84 189 9 0 1
-7 -18 -15 -20 -8 -42 -24 -49 -36 -18 -29 -16 -127 4 -169 8 -19 13 -25 9
-14 -11 36 -17 123 -10 148 6 27 31 57 46 57 5 0 -2 -11 -15 -25 -20 -19 -25
-34 -24 -72 l1 -48 8 48 c10 58 24 77 57 77 27 0 42 -25 24 -43 -8 -8 -11 -6
-11 7 0 27 -43 16 -53 -14 -6 -17 -4 -36 7 -60 15 -34 15 -34 10 -5 l-5 30 16
-32 c9 -17 27 -40 38 -50 l22 -18 -19 23 c-13 15 -15 22 -6 22 10 0 9 5 -3 18
-10 10 -14 22 -10 26 4 4 0 12 -10 17 -9 6 -17 19 -17 29 0 25 9 25 26 3 12
-16 14 -17 29 -2 20 20 11 45 -24 65 l-26 15 25 -7 c47 -12 70 -33 70 -64 0
-17 -7 -33 -17 -38 -14 -9 -14 -11 5 -21 26 -14 19 -41 -12 -42 -11 -1 -3 -5
19 -11 71 -17 72 -18 52 -33 -10 -7 -28 -11 -40 -8 -15 3 -12 -1 8 -10 17 -8
36 -21 44 -30 24 -30 -36 -20 -85 13 -62 43 -55 30 9 -16 108 -77 147 -124
126 -150 -11 -13 -20 -7 -68 38 -37 35 -44 39 -20 13 69 -76 86 -124 57 -153
-22 -22 -36 -13 -66 41 -16 28 -39 63 -51 77 -12 14 -6 0 13 -30 49 -77 84
-168 98 -253 14 -95 -6 -201 -62 -313 -46 -94 -112 -161 -213 -219 -34 -19
-58 -35 -53 -35 26 0 149 86 197 138 129 139 176 334 123 513 -10 31 -12 55
-6 57 29 9 44 31 44 65 0 20 6 41 14 48 27 22 16 56 -33 98 -41 35 -45 41 -25
41 28 0 29 24 0 44 -19 14 -19 16 -5 22 36 13 12 44 -34 44 -17 0 -18 3 -7 21
11 17 10 22 -4 30 -16 9 -16 11 -1 38 16 28 16 30 -19 82 -20 30 -50 64 -68
77 -17 13 -40 43 -50 67 -18 41 -21 43 -72 50 -62 9 -112 32 -165 77 -23 20
-30 23 -18 9z"/>
<path d="M3945 3638 c17 -6 33 -16 37 -22 5 -8 8 -7 8 1 0 15 -32 33 -57 32
-11 0 -7 -5 12 -11z"/>
<path d="M1042 3605 c-17 -37 -14 -45 4 -12 9 16 14 31 11 33 -2 2 -9 -7 -15
-21z"/>
<path d="M2309 3611 c6 -10 7 -22 3 -26 -4 -4 3 -2 16 4 19 10 21 15 11 27
-18 22 -42 18 -30 -5z"/>
<path d="M2985 3619 c-12 -19 3 -22 27 -5 l22 16 -21 0 c-12 0 -25 -5 -28 -11z"/>
<path d="M2380 3600 c0 -13 5 -20 13 -17 6 2 12 10 12 17 0 7 -6 15 -12 18 -8
2 -13 -5 -13 -18z"/>
<path d="M3227 3599 c8 -8 16 -8 30 0 16 9 14 10 -11 11 -22 0 -27 -3 -19 -11z"/>
<path d="M2878 3583 c7 -3 16 -2 19 1 4 3 -2 6 -13 5 -11 0 -14 -3 -6 -6z"/>
<path d="M3189 3581 c-16 -5 -29 -21 -29 -36 0 -6 3 -6 8 1 4 5 17 11 30 12
43 3 51 5 55 16 4 11 -38 16 -64 7z"/>
<path d="M1657 3565 c-14 -7 -28 -10 -32 -7 -3 4 -3 -2 1 -12 5 -13 4 -17 -4
-12 -8 5 -10 1 -5 -10 5 -14 8 -12 20 10 10 19 21 26 44 26 37 0 83 -23 103
-52 9 -12 16 -18 16 -12 0 17 -42 52 -81 68 -30 13 -40 13 -62 1z"/>
<path d="M1780 3576 c0 -2 8 -10 18 -17 15 -13 16 -12 3 4 -13 16 -21 21 -21
13z"/>
<path d="M2267 3574 c-11 -11 21 -34 38 -28 12 5 13 9 4 20 -12 15 -31 18 -42
8z"/>
<path d="M2666 3572 c-2 -4 2 -16 10 -27 12 -16 14 -17 14 -2 0 9 -5 17 -11
17 -5 0 -7 5 -4 10 3 6 4 10 1 10 -3 0 -7 -3 -10 -8z"/>
<path d="M4690 3568 c1 -14 79 -240 79 -230 1 16 -69 232 -75 232 -2 0 -4 -1
-4 -2z"/>
<path d="M1011 3529 c-6 -18 -9 -34 -7 -36 2 -2 9 10 15 28 6 18 9 34 7 36 -2
2 -9 -10 -15 -28z"/>
<path d="M2655 3500 c0 -52 9 -54 21 -6 5 23 4 27 -6 21 -10 -6 -12 -4 -7 8 3
9 3 18 -1 21 -5 3 -8 -17 -7 -44z"/>
<path d="M2865 3520 c28 -12 55 -12 55 0 0 6 -17 10 -37 9 -31 0 -34 -2 -18
-9z"/>
<path d="M4033 3516 c-13 -6 -23 -14 -23 -18 0 -13 13 -9 40 12 27 21 19 24
-17 6z"/>
<path d="M1601 3500 c-3 -63 77 -129 140 -115 29 7 80 57 78 78 0 8 -2 8 -6
-1 -2 -6 -9 -10 -13 -7 -5 3 -12 0 -16 -6 -4 -8 -3 -9 4 -5 22 13 12 -13 -10
-28 -29 -21 -83 -20 -119 1 -27 16 -42 42 -52 88 -4 16 -5 15 -6 -5z"/>
<path d="M1821 3494 c0 -11 3 -14 6 -6 3 7 2 16 -1 19 -3 4 -6 -2 -5 -13z"/>
<path d="M4063 3495 c-3 -9 -3 -18 -1 -21 3 -3 8 4 11 16 6 23 -1 27 -10 5z"/>
<path d="M951 3493 c-1 -6 -4 -20 -7 -30 -5 -17 -5 -17 6 0 6 10 9 23 6 30 -3
9 -5 9 -5 0z"/>
<path d="M2870 3490 c-10 -8 5 -9 50 -4 36 4 67 8 69 10 10 9 -106 3 -119 -6z"/>
<path d="M2353 3455 c0 -8 4 -12 9 -9 5 3 6 10 3 15 -9 13 -12 11 -12 -6z"/>
<path d="M2878 3462 c-10 -2 -18 -8 -18 -13 0 -13 27 -11 35 2 9 13 4 16 -17
11z"/>
<path d="M2915 3450 c4 -6 11 -7 17 -4 7 5 9 2 5 -8 -4 -11 0 -15 11 -13 9 1
24 -3 32 -9 13 -10 13 -9 1 6 -7 10 -17 16 -21 13 -4 -3 -10 2 -14 10 -3 8
-13 15 -21 15 -9 0 -13 -5 -10 -10z"/>
<path d="M4020 3409 c-47 -22 -87 -45 -91 -50 -3 -5 -11 2 -17 16 -7 15 -10
31 -7 36 4 5 1 9 -4 9 -15 0 -14 -14 6 -55 17 -36 33 -46 33 -20 0 22 138 89
155 75 9 -8 15 -8 20 0 3 5 1 10 -5 10 -6 0 -8 5 -5 10 9 15 7 14 -85 -31z"/>
<path d="M917 3383 c-171 -612 -42 -1268 351 -1772 267 -343 658 -596 1091
-706 53 -13 121 -26 151 -30 30 -3 1 6 -65 20 -332 71 -640 220 -895 435 -49
41 -89 78 -90 82 0 4 12 3 26 -2 14 -6 41 -10 60 -10 29 0 36 -5 48 -34 16
-39 60 -66 107 -66 28 0 31 -2 25 -25 -6 -23 2 -30 81 -82 49 -31 112 -71 141
-90 249 -162 672 -251 1017 -214 207 22 411 77 623 168 165 70 352 180 352
207 0 8 17 21 38 30 61 27 66 31 90 67 20 29 31 35 72 40 86 11 140 72 140
156 0 35 3 40 33 51 37 13 58 43 66 92 5 28 11 36 32 38 57 7 232 347 297 579
20 70 20 72 1 89 -18 16 -17 17 12 47 29 28 30 34 24 81 -3 28 -8 83 -10 123
-3 61 0 76 17 98 11 14 23 24 26 20 3 -3 -5 -16 -18 -30 -13 -14 -19 -25 -13
-25 14 0 43 45 43 68 0 10 5 23 11 29 8 8 8 13 0 17 -6 4 -11 20 -11 35 0 32
-34 81 -56 81 -8 0 -14 6 -14 13 0 9 -17 14 -54 15 -46 1 -60 -3 -90 -27 -36
-29 -36 -29 -11 -33 14 -3 25 -2 25 1 0 3 16 11 35 17 20 6 35 7 35 2 0 -5 5
-6 10 -3 6 3 10 1 10 -4 0 -9 -8 -12 -35 -11 -3 0 -18 -6 -33 -14 -20 -10 -33
-11 -46 -4 -29 16 -39 -4 -38 -76 0 -61 3 -67 36 -101 27 -27 43 -35 72 -35
29 0 35 -3 30 -16 -3 -9 -6 -20 -6 -25 0 -5 -14 -9 -31 -9 -22 0 -41 -10 -66
-35 -31 -31 -35 -40 -31 -78 3 -23 8 -50 12 -59 5 -11 2 -18 -11 -21 -10 -2 2
-2 27 1 63 6 116 20 128 35 6 6 13 24 17 39 5 21 1 33 -19 52 -64 65 -153 -16
-100 -92 14 -21 14 -22 -5 -22 -44 0 -57 91 -18 135 15 18 36 28 64 32 39 5
46 2 78 -30 38 -38 44 -70 21 -116 -18 -34 -46 -47 -120 -56 -31 -4 -59 -12
-63 -18 -4 -6 -24 -62 -44 -123 -40 -118 -114 -276 -174 -370 -28 -43 -33 -59
-25 -74 19 -36 2 -43 -27 -10 -18 18 -19 18 -19 1 0 -15 13 -21 56 -31 30 -6
64 -14 76 -17 18 -4 30 11 78 91 31 52 74 133 95 178 41 88 111 284 111 310 0
15 -37 55 -44 47 -2 -2 -16 -44 -31 -94 -15 -49 -39 -133 -55 -185 -15 -52
-40 -120 -54 -150 -14 -30 -26 -61 -26 -67 0 -7 -4 -13 -10 -13 -5 0 -9 -3 -8
-7 2 -5 -8 -27 -22 -51 -21 -37 -28 -43 -54 -40 -20 2 -35 12 -45 29 -14 25
-12 30 32 100 63 101 123 233 167 364 l37 110 52 8 c68 11 105 -9 95 -51 -14
-61 -78 -241 -115 -321 -53 -116 -160 -291 -176 -291 -8 0 -46 7 -85 16 -53
12 -76 14 -94 5 -26 -11 -48 -56 -40 -77 4 -10 -1 -11 -20 -4 -14 6 -35 10
-47 9 -13 -1 -6 -5 17 -10 21 -5 51 -18 66 -29 61 -43 127 -9 117 60 -4 33 -3
37 14 33 15 -4 19 -15 19 -48 0 -81 -84 -120 -158 -75 -18 11 -38 17 -44 14
-7 -4 -8 -2 -4 4 10 17 -49 15 -83 -3 -34 -17 -65 -78 -57 -110 6 -22 4 -23
-37 -19 -42 3 -42 3 -6 -5 21 -4 51 -20 69 -34 58 -49 111 -48 162 4 26 25 30
35 26 74 -3 38 0 45 14 45 25 0 25 -84 -1 -126 -21 -34 -75 -64 -115 -64 -36
0 -87 23 -110 49 -39 43 -118 14 -120 -46 -1 -31 -1 -31 -26 -14 -43 30 -56
34 -25 8 46 -39 112 -69 135 -62 30 10 50 34 50 60 0 18 4 23 15 19 42 -16 -4
-99 -60 -110 -34 -6 -67 7 -145 58 -24 16 -27 16 -80 -19 -90 -58 -266 -140
-387 -179 -98 -33 -114 -41 -120 -62 -6 -24 -7 -24 -19 -7 -7 10 -12 21 -9 24
2 4 -4 7 -14 7 -13 0 -5 -16 33 -67 l51 -66 70 20 c139 39 344 131 469 211 53
34 57 39 51 66 -8 34 8 41 25 11 22 -42 12 -58 -62 -105 -106 -66 -288 -150
-408 -189 -168 -55 -152 -57 -205 18 -47 65 -66 84 -44 44 14 -27 4 -36 -53
-44 -46 -7 -48 -6 -48 18 0 30 15 44 55 50 l30 4 -33 2 c-39 1 -72 -28 -72
-64 0 -30 41 -75 67 -75 25 0 63 28 72 52 6 17 9 18 20 5 10 -13 7 -21 -17
-48 -25 -28 -37 -34 -72 -34 -35 0 -47 6 -71 33 -18 20 -30 44 -30 65 -2 27
-2 28 -6 7 -8 -42 -53 -57 -53 -17 0 12 -5 29 -10 37 -7 11 -9 5 -5 -20 l5
-35 -14 35 c-18 44 -19 53 -3 44 8 -5 8 -2 -2 9 -17 21 -27 22 -35 1 -3 -8 -2
-12 4 -9 6 3 10 -3 10 -15 0 -12 5 -30 10 -41 8 -14 7 -19 -3 -19 -18 0 -37
21 -37 41 0 18 -29 31 -75 33 -17 1 -37 6 -45 11 -8 4 -12 5 -8 0 4 -4 0 -21
-8 -37 -9 -16 -13 -36 -11 -43 5 -12 -41 -40 -51 -31 -3 3 3 9 12 12 14 5 15
9 4 15 -10 6 -10 11 0 21 6 6 12 23 12 36 0 17 4 23 15 18 21 -8 19 1 -4 13
-14 8 -22 7 -32 -6 -10 -12 -10 -15 -1 -9 8 5 12 1 12 -13 0 -26 -17 -36 -24
-14 -4 15 -5 15 -4 -2 1 -60 -1 -65 -32 -65 -28 0 -30 3 -30 35 0 24 -8 43
-27 63 -16 15 -21 19 -12 7 26 -31 31 -62 19 -99 -14 -43 -48 -66 -98 -66 -45
0 -92 38 -92 74 0 18 -3 16 -20 -12 -11 -17 -28 -32 -38 -32 -10 0 -68 16
-128 35 -123 40 -295 120 -420 195 -92 56 -87 45 -63 140 11 45 11 72 -1 43
-5 -13 -15 -23 -22 -23 -10 0 -9 -3 1 -9 25 -16 4 -41 -33 -41 -43 0 -92 39
-101 79 -6 27 -9 29 -44 24 -81 -11 -151 52 -151 135 0 47 10 73 44 112 20 24
20 24 0 7 -24 -20 -65 -22 -82 -5 -16 16 -15 83 1 96 6 5 23 12 37 15 24 4 23
4 -4 6 -24 1 -27 3 -16 16 7 8 18 15 24 15 6 0 12 14 13 30 2 21 -11 51 -41
98 -79 123 -146 272 -190 426 -13 44 -29 82 -36 84 -8 3 -9 -1 -1 -14 5 -11
24 -64 41 -119 34 -112 114 -285 179 -387 l42 -67 -40 -67 c-23 -37 -41 -77
-41 -89 0 -26 39 -65 64 -65 25 0 14 -24 -12 -28 -14 -2 -33 8 -52 27 -37 36
-40 87 -9 137 11 19 16 34 10 34 -6 0 -11 -6 -11 -14 0 -18 -38 -46 -62 -46
-40 0 -192 287 -257 485 -21 65 -41 112 -44 104 -3 -8 -3 2 0 21 3 19 16 44
29 55 l23 20 -28 13 c-55 24 -67 100 -25 154 l26 33 -31 -33 c-23 -23 -31 -42
-32 -70 l-1 -37 -10 45 c-35 171 -31 159 -38 120 -4 -23 -9 11 -14 95 -11 187
13 413 65 604 11 40 18 75 16 78 -2 2 -11 -22 -20 -54z m3713 -425 c-14 -5
-34 -14 -45 -20 -16 -7 -16 -5 4 12 13 11 33 20 45 19 19 0 19 -1 -4 -11z m89
-33 c1 6 13 -3 27 -20 18 -21 21 -23 10 -5 -22 35 -19 50 4 21 24 -28 25 -35
4 -55 -12 -13 -12 -16 -2 -16 33 0 37 -22 8 -54 -15 -17 -37 -42 -48 -56 -19
-23 -21 -23 -28 -7 -4 12 3 30 24 56 24 30 28 41 19 57 -6 10 -13 21 -16 24
-15 13 -29 49 -26 66 6 30 7 30 15 4 4 -14 8 -20 9 -15z m-44 -25 c-3 -5 1
-10 9 -10 9 0 13 -6 10 -14 -3 -7 2 -16 10 -19 20 -8 21 -47 1 -47 -8 0 -15
-7 -15 -15 0 -21 -27 -30 -45 -15 -8 6 -19 9 -24 6 -6 -4 -15 2 -21 13 -7 14
-7 22 0 26 7 5 8 11 1 18 -6 8 -5 18 3 29 16 22 40 7 32 -19 -10 -30 2 -52 25
-46 22 6 26 41 4 49 -18 7 -19 26 -3 42 15 15 21 16 13 2z m-107 -8 c8 -6 11
-22 7 -49 -4 -31 -1 -42 11 -47 8 -3 13 -10 9 -15 -7 -12 26 -31 54 -31 11 0
25 -9 31 -19 16 -31 12 -35 -11 -10 -11 13 -18 18 -14 12 7 -15 -21 -18 -30
-3 -3 6 -15 10 -26 10 -11 0 -17 5 -14 10 3 6 1 10 -4 10 -6 0 -11 -5 -11 -11
0 -6 -7 -3 -16 6 -14 13 -20 75 -15 138 1 9 13 9 29 -1z m102 -63 c0 -5 -7 -9
-15 -9 -15 0 -20 12 -9 23 8 8 24 -1 24 -14z m-44 -120 c8 -14 -20 -10 -41 5
-18 13 -18 14 8 9 15 -3 30 -9 33 -14z m24 -141 c0 -49 -13 -98 -26 -98 -14 0
-44 38 -44 56 0 18 40 64 56 64 8 0 14 -10 14 -22z m-3686 -155 c-22 -16 -30
-8 -38 39 l-7 37 32 -31 c29 -30 30 -32 13 -45z m125 -418 c33 -66 79 -151
103 -188 38 -61 46 -68 71 -64 25 3 27 1 27 -29 0 -50 19 -82 61 -101 35 -17
37 -22 41 -68 2 -27 8 -59 13 -70 22 -48 -140 149 -223 272 -83 123 -197 362
-226 473 -6 23 -6 23 9 -3 21 -37 27 -30 15 14 -20 69 -8 51 21 -31 16 -47 56
-139 88 -205z m3213 -242 c24 -22 23 -52 -4 -80 -25 -27 -45 -29 -70 -6 -24
21 -23 58 2 83 24 24 47 25 72 3z m-114 -149 c71 -81 -47 -186 -123 -109 -17
16 -25 35 -25 58 0 81 93 113 148 51z m-184 -150 c24 -23 19 -48 -14 -72 -33
-25 -51 -27 -68 -10 -29 29 1 98 43 98 13 0 31 -7 39 -16z m-152 -101 c39 -35
24 -55 -85 -110 -56 -29 -140 -67 -187 -84 -107 -39 -303 -98 -311 -93 -4 2
-4 18 0 35 6 30 12 33 83 55 113 33 282 108 373 164 89 54 100 57 127 33z
m-1022 -276 c0 -9 3 -8 9 1 7 11 12 12 29 1 11 -7 18 -18 15 -25 -2 -6 0 -15
5 -18 6 -3 8 -15 5 -26 -7 -28 -39 -21 -36 7 3 23 -24 40 -40 24 -6 -6 -4 -9
4 -8 8 1 15 -2 17 -8 1 -5 -4 -10 -10 -10 -7 0 -17 -6 -21 -12 -12 -20 -34
-15 -40 7 -3 12 1 24 11 30 12 7 13 9 3 10 -10 0 -11 3 -2 13 6 8 9 16 6 18
-2 3 7 6 20 7 14 1 25 -4 25 -11z m20 -97 c0 -13 -7 -20 -20 -20 -13 0 -20 7
-20 20 0 13 7 20 20 20 13 0 20 -7 20 -20z m-71 -17 c20 -14 37 -27 37 -27 1
-1 5 -12 8 -26 5 -17 4 -21 -2 -12 -5 8 -12 13 -16 13 -12 -3 -85 62 -80 70 8
13 14 11 53 -18z m124 -19 c-26 -24 -39 -30 -45 -21 -5 8 -8 5 -8 -8 0 -17 -2
-17 -10 -5 -13 21 -12 30 3 30 8 0 27 11 42 24 15 13 34 22 42 19 10 -4 3 -15
-24 -39z m-128 -42 c-3 -3 -18 7 -33 23 l-27 28 33 -23 c18 -12 31 -25 27 -28z
m139 13 c-29 -22 -42 -17 -15 6 13 11 26 17 29 14 3 -3 -3 -12 -14 -20z"/>
<path d="M4540 2886 c0 -2 7 -7 16 -10 8 -3 12 -2 9 4 -6 10 -25 14 -25 6z"/>
<path d="M4565 2779 c-11 -17 1 -21 15 -4 8 9 8 15 2 15 -6 0 -14 -5 -17 -11z"/>
<path d="M2718 3401 c9 -16 18 -28 20 -27 6 7 -18 56 -27 56 -6 0 -2 -13 7
-29z"/>
<path d="M2878 3423 c7 -3 16 -2 19 1 4 3 -2 6 -13 5 -11 0 -14 -3 -6 -6z"/>
<path d="M2645 3405 c4 -11 11 -33 15 -50 l8 -30 1 31 c1 16 -6 39 -15 50 -15
19 -16 19 -9 -1z"/>
<path d="M2684 3394 c8 -17 12 -34 9 -38 -4 -3 -1 -6 6 -6 16 0 5 39 -16 60
-13 13 -13 10 1 -16z"/>
<path d="M2623 3373 c1 -24 5 -43 10 -43 10 0 8 52 -3 70 -7 11 -9 3 -7 -27z"/>
<path d="M4058 3373 c6 -2 18 -2 25 0 6 3 1 5 -13 5 -14 0 -19 -2 -12 -5z"/>
<path d="M4100 3366 c0 -2 7 -7 16 -10 8 -3 12 -2 9 4 -6 10 -25 14 -25 6z"/>
<path d="M3984 3338 l-19 -23 23 19 c21 18 27 26 19 26 -2 0 -12 -10 -23 -22z"/>
<path d="M1524 3328 l-19 -23 23 19 c21 18 27 26 19 26 -2 0 -12 -10 -23 -22z"/>
<path d="M4033 3321 c-37 -17 -73 -61 -73 -90 0 -22 53 -71 85 -77 66 -12 137
47 134 113 -1 19 -3 22 -6 8 -2 -11 -6 -30 -9 -43 -10 -50 -114 -80 -162 -46
-22 15 -32 41 -10 28 7 -4 8 -3 4 5 -4 6 -12 9 -17 6 -14 -9 -11 12 6 44 16
31 59 51 109 51 37 0 56 -15 57 -44 0 -15 3 -13 10 8 9 31 7 38 -14 43 -50 13
-76 11 -114 -6z"/>
<path d="M2283 3323 c-13 -5 -7 -33 7 -33 11 0 21 28 12 33 -4 3 -12 2 -19 0z"/>
<path d="M1530 3305 c-7 -8 -15 -13 -19 -10 -4 2 -5 -10 -2 -28 5 -29 6 -30 9
-7 6 38 21 50 61 50 45 0 98 -32 111 -66 13 -33 13 -37 -2 -28 -7 5 -8 3 -4
-5 11 -17 -20 -49 -54 -56 -31 -7 -88 13 -109 39 -7 9 -17 31 -21 49 -6 24 -8
26 -9 9 -2 -54 59 -112 119 -112 33 0 75 26 88 55 18 39 -7 91 -52 110 -45 19
-100 19 -116 0z"/>
<path d="M2715 3310 c3 -5 13 -10 21 -10 8 0 14 5 14 10 0 6 -9 10 -21 10 -11
0 -17 -4 -14 -10z"/>
<path d="M4772 3305 c0 -11 4 -31 8 -45 6 -20 8 -21 8 -5 0 11 -4 31 -8 45 -6
20 -8 21 -8 5z"/>
<path d="M1696 3297 c3 -10 9 -15 12 -12 3 3 0 11 -7 18 -10 9 -11 8 -5 -6z"/>
<path d="M761 3274 c0 -11 3 -14 6 -6 3 7 2 16 -1 19 -3 4 -6 -2 -5 -13z"/>
<path d="M1078 3273 c6 -2 18 -2 25 0 6 3 1 5 -13 5 -14 0 -19 -2 -12 -5z"/>
<path d="M2251 3266 c-9 -11 -7 -13 11 -11 42 4 43 5 28 15 -20 13 -26 12 -39
-4z"/>
<path d="M2730 3255 c-10 -13 -9 -15 9 -15 12 0 21 6 21 15 0 8 -4 15 -9 15
-5 0 -14 -7 -21 -15z"/>
<path d="M3240 3255 c0 -9 5 -15 11 -13 6 2 11 8 11 13 0 5 -5 11 -11 13 -6 2
-11 -4 -11 -13z"/>
<path d="M3355 3249 c-10 -15 3 -25 16 -12 7 7 7 13 1 17 -6 3 -14 1 -17 -5z"/>
<path d="M2590 3220 c-1 -30 -3 -32 -10 -14 -5 12 -15 25 -22 29 -10 6 -10 5
-2 -4 7 -7 9 -22 7 -32 -6 -20 -6 -20 -25 1 -24 26 -42 26 -26 0 10 -16 10
-22 -1 -32 -11 -10 -12 -10 -7 0 5 8 0 12 -16 12 l-22 0 22 -16 c26 -18 29
-34 5 -34 -10 0 -25 -5 -33 -11 -11 -8 -7 -9 18 -6 l34 4 -31 -24 c-35 -28
-42 -50 -10 -32 15 8 24 8 32 0 6 -6 7 -11 3 -11 -5 0 -2 -8 5 -17 12 -14 12
-16 0 -8 -11 6 -13 4 -8 -11 7 -19 7 -19 -8 0 -11 14 -12 23 -4 33 9 9 8 13 0
13 -6 0 -16 -12 -21 -26 -14 -35 -12 -44 5 -38 10 4 15 0 15 -13 0 -10 6 -25
13 -32 10 -12 8 -13 -8 -7 -16 5 -15 3 5 -13 13 -11 28 -17 32 -15 4 2 3 -9
-2 -26 -5 -16 -5 -30 0 -30 4 0 11 11 14 25 6 24 79 72 100 66 14 -3 26 21 25
54 0 17 -3 24 -6 16 -5 -11 -7 -11 -14 0 -5 8 -2 20 8 31 13 15 13 18 2 19 -8
0 -4 4 8 9 16 6 21 14 16 26 -5 13 -2 15 18 9 l24 -8 -20 22 c-15 18 -16 24
-6 30 18 12 -3 24 -28 16 -11 -3 -23 0 -27 6 -4 8 -3 9 4 5 7 -4 12 -2 12 5 0
6 -8 9 -18 7 -15 -4 -18 0 -16 21 2 17 1 19 -2 7 -6 -19 -7 -18 -20 5 -13 24
-13 24 -14 -11z m36 -81 c19 -16 13 -57 -11 -73 -28 -19 -57 -15 -66 10 -14
35 -10 47 12 41 l21 -6 -21 20 c-11 11 -21 21 -21 22 0 7 76 -6 86 -14z m-116
-53 c0 -2 -9 -6 -20 -9 -11 -3 -18 -1 -14 4 5 9 34 13 34 5z m62 -108 c-9 -9
-15 -9 -24 0 -9 9 -7 12 12 12 19 0 21 -3 12 -12z"/>
<path d="M2568 3078 c5 -5 16 -8 23 -6 8 3 3 7 -10 11 -17 4 -21 3 -13 -5z"/>
<path d="M3297 3243 c-13 -13 -7 -32 8 -27 8 4 15 12 15 20 0 15 -12 19 -23 7z"/>
<path d="M979 3200 c-23 -22 -29 -35 -24 -52 10 -33 43 -58 74 -57 23 1 22 2
-8 9 -37 9 -51 24 -51 57 0 30 39 65 67 60 12 -2 20 0 17 4 -11 18 -47 8 -75
-21z"/>
<path d="M2286 3214 c-9 -24 -8 -26 14 -14 11 6 18 15 15 21 -9 14 -22 11 -29
-7z"/>
<path d="M2790 3215 c0 -9 6 -12 15 -9 8 4 15 10 15 15 0 5 -7 9 -15 9 -8 0
-15 -7 -15 -15z"/>
<path d="M4792 3215 c-1 -11 3 -38 7 -60 7 -34 9 -35 9 -10 0 35 -15 101 -16
70z"/>
<path d="M3581 3194 c0 -11 3 -14 6 -6 3 7 2 16 -1 19 -3 4 -6 -2 -5 -13z"/>
<path d="M1076 3187 c3 -10 9 -15 12 -12 3 3 0 11 -7 18 -10 9 -11 8 -5 -6z"/>
<path d="M3661 3184 c0 -11 3 -14 6 -6 3 7 2 16 -1 19 -3 4 -6 -2 -5 -13z"/>
<path d="M741 3164 c0 -11 3 -14 6 -6 3 7 2 16 -1 19 -3 4 -6 -2 -5 -13z"/>
<path d="M910 3159 c0 -13 5 -31 10 -39 7 -11 8 -5 4 20 -8 43 -14 51 -14 19z"/>
<path d="M4191 3156 c-7 -8 -22 -17 -34 -19 -20 -4 -20 -4 -2 -5 21 -1 62 24
53 33 -3 3 -11 -1 -17 -9z"/>
<path d="M2335 3116 c0 -16 4 -22 15 -18 30 10 33 15 15 29 -26 18 -30 17 -30
-11z"/>
<path d="M3013 3125 c0 -8 4 -12 9 -9 5 3 6 10 3 15 -9 13 -12 11 -12 -6z"/>
<path d="M4211 3129 c0 -8 -26 -43 -56 -77 l-55 -61 32 -3 c23 -3 10 -7 -40
-12 -40 -5 -70 -12 -65 -16 8 -8 98 1 161 14 21 5 32 4 32 -3 0 -6 5 -11 10
-11 6 0 10 15 9 33 -1 25 -2 27 -7 11 -7 -19 -10 -20 -57 -10 l-50 11 48 52
c32 34 47 58 44 70 -4 14 -5 14 -6 2z"/>
<path d="M2402 3114 c1 -9 9 -19 16 -22 9 -3 13 2 10 14 -1 9 -9 19 -16 22 -9
3 -13 -2 -10 -14z"/>
<path d="M4001 3108 c1 -18 2 -19 6 -5 2 9 9 14 15 11 7 -4 8 -2 4 4 -12 20
-26 13 -25 -10z"/>
<path d="M1453 3104 c-3 -8 -1 -29 5 -47 l12 -32 -6 39 c-4 26 -1 42 8 47 10
7 10 9 0 9 -7 0 -15 -7 -19 -16z"/>
<path d="M2017 3085 c-9 -19 -15 -35 -12 -35 7 0 37 61 33 66 -3 2 -12 -12
-21 -31z"/>
<path d="M2950 3110 c-8 -5 -10 -10 -5 -10 6 0 17 5 25 10 8 5 11 10 5 10 -5
0 -17 -5 -25 -10z"/>
<path d="M3220 3109 c0 -6 -9 -8 -22 -4 -23 7 -23 7 -3 -10 11 -9 15 -14 9
-11 -7 3 -14 0 -17 -7 -3 -8 5 -12 24 -12 17 0 29 5 29 13 0 7 -4 10 -10 7
-16 -10 -11 1 7 16 9 8 14 10 11 4 -3 -5 0 -15 7 -22 15 -14 26 2 18 25 -6 15
-53 16 -53 1z"/>
<path d="M3660 3116 c0 -11 30 -66 36 -66 2 0 -3 15 -12 33 -19 36 -24 44 -24
33z"/>
<path d="M4083 3111 c-41 -7 -73 -25 -73 -42 0 -5 5 -9 10 -9 6 0 10 6 10 14
0 14 42 26 91 26 16 0 29 5 29 10 0 11 -4 11 -67 1z"/>
<path d="M3640 3101 c0 -6 4 -13 10 -16 6 -3 7 1 4 9 -7 18 -14 21 -14 7z"/>
<path d="M4813 3075 c0 -22 2 -30 4 -17 2 12 2 30 0 40 -3 9 -5 -1 -4 -23z"/>
<path d="M1476 3091 c-4 -5 3 -7 14 -4 23 6 26 13 6 13 -8 0 -17 -4 -20 -9z"/>
<path d="M3150 3096 c0 -2 7 -7 16 -10 8 -3 12 -2 9 4 -6 10 -25 14 -25 6z"/>
<path d="M3710 3097 c0 -2 15 -16 33 -33 l32 -29 -29 33 c-28 30 -36 37 -36
29z"/>
<path d="M2297 3084 c-11 -11 3 -24 25 -24 17 0 18 2 8 15 -13 16 -23 19 -33
9z"/>
<path d="M4095 3048 l-40 -43 43 40 c39 36 47 45 39 45 -2 0 -21 -19 -42 -42z"/>
<path d="M2701 3064 c0 -11 3 -14 6 -6 3 7 2 16 -1 19 -3 4 -6 -2 -5 -13z"/>
<path d="M1525 3050 c3 -5 8 -10 11 -10 2 0 4 5 4 10 0 6 -5 10 -11 10 -5 0
-7 -4 -4 -10z"/>
<path d="M1560 3045 c-19 -23 -8 -25 14 -4 11 11 15 19 9 19 -6 0 -16 -7 -23
-15z"/>
<path d="M2665 3045 c-20 -14 -20 -14 1 -10 19 3 20 0 14 -36 -4 -21 -4 -36 1
-34 13 8 21 63 12 80 -8 13 -11 13 -28 0z"/>
<path d="M2880 3041 l-55 -6 43 -7 c29 -4 55 -2 75 7 34 15 29 16 -63 6z"/>
<path d="M4351 2835 c0 -233 6 -248 34 -86 17 94 10 192 -18 266 -15 38 -16
27 -16 -180z"/>
<path d="M1444 3003 c1 -29 4 -39 12 -32 17 14 157 -8 171 -27 14 -19 19 -11
28 44 5 29 3 42 -5 42 -6 0 -9 -4 -6 -9 3 -5 3 -23 0 -41 -4 -17 -10 -27 -14
-21 -3 6 -45 17 -93 23 -81 11 -86 13 -90 37 -3 14 -4 7 -3 -16z"/>
<path d="M3707 3023 c5 -12 3 -14 -8 -8 -8 5 -11 5 -6 -1 5 -5 12 -9 15 -9 4
0 13 -4 21 -9 8 -5 7 1 -4 18 -20 30 -27 34 -18 9z"/>
<path d="M4210 3022 c0 -6 -8 -13 -17 -15 -16 -4 -16 -5 -1 -6 18 -1 34 16 24
26 -3 4 -6 1 -6 -5z"/>
<path d="M4824 2845 c0 -104 2 -146 3 -92 2 54 2 139 0 190 -1 51 -3 7 -3 -98z"/>
<path d="M2895 3000 c-12 -5 8 -6 50 -3 39 3 72 7 74 9 9 8 -105 2 -124 -6z"/>
<path d="M4710 3000 c-9 -6 -10 -10 -3 -10 6 0 15 5 18 10 8 12 4 12 -15 0z"/>
<path d="M3128 2993 c18 -2 45 -2 60 0 15 2 0 4 -33 4 -33 0 -45 -2 -27 -4z"/>
<path d="M971 2962 c-1 -18 -5 -22 -20 -17 -21 6 -60 -27 -63 -54 -3 -32 -4
-36 -10 -47 -10 -15 10 -85 30 -108 35 -38 94 -52 129 -29 13 9 34 13 48 11
16 -3 26 0 30 11 3 8 3 12 -1 8 -4 -4 -13 1 -21 11 -11 14 -12 14 -7 1 5 -15
-24 -28 -71 -33 -5 -1 -16 -5 -24 -10 -15 -10 -34 12 -24 28 3 5 2 6 -4 3 -12
-8 -54 47 -56 73 -1 11 -7 20 -15 20 -7 0 -10 5 -7 10 3 6 16 10 28 10 17 0
19 2 7 10 -12 7 -11 12 5 32 11 13 28 30 38 39 11 9 17 24 14 35 -4 16 -5 15
-6 -4z m-31 -31 c0 -6 -11 -23 -25 -38 -19 -22 -24 -23 -19 -8 7 19 33 55 41
55 1 0 3 -4 3 -9z m4 -210 c-8 -8 -42 33 -49 59 -6 20 -1 17 23 -15 17 -22 28
-42 26 -44z"/>
<path d="M1005 2970 c-11 -5 -14 -9 -7 -9 6 -1 12 -9 12 -18 0 -13 2 -15 8 -5
5 7 17 10 28 7 12 -4 10 -1 -5 8 -23 14 -24 15 -5 20 10 2 12 5 4 5 -8 0 -24
-3 -35 -8z"/>
<path d="M2370 2976 c0 -2 8 -10 18 -17 15 -13 16 -12 3 4 -13 16 -21 21 -21
13z"/>
<path d="M2895 2973 c-11 -3 -24 -9 -29 -13 -10 -10 36 -6 53 4 15 10 43 -13
34 -28 -4 -7 -2 -7 7 1 10 9 17 7 33 -10 l19 -22 -13 23 c-8 13 -18 23 -22 22
-4 0 -15 6 -23 15 -16 15 -24 16 -59 8z"/>
<path d="M1094 2953 c4 -6 -2 -14 -11 -16 -17 -4 -17 -5 0 -6 10 0 16 -5 13
-9 -2 -4 10 -9 27 -9 18 -1 25 1 17 4 -8 3 -23 16 -33 27 -10 12 -16 16 -13 9z"/>
<path d="M2690 2937 c0 -1 9 -20 20 -42 11 -22 20 -34 20 -27 0 15 -28 72 -35
72 -3 0 -5 -1 -5 -3z"/>
<path d="M2730 2939 c0 -4 7 -20 15 -35 8 -16 15 -22 15 -13 0 14 -29 61 -30
48z"/>
<path d="M4130 2926 c0 -8 -3 -21 -6 -30 -5 -12 0 -16 20 -16 28 0 32 10 16
41 -12 22 -30 25 -30 5z"/>
<path d="M2668 2913 c7 -12 12 -31 12 -42 0 -12 4 -21 8 -21 14 0 1 58 -16 72
-13 11 -14 10 -4 -9z"/>
<path d="M3777 2875 c15 -30 29 -53 31 -51 4 5 -46 106 -53 106 -3 0 7 -25 22
-55z"/>
<path d="M1890 2879 c-12 -23 -20 -43 -18 -45 3 -2 14 17 26 41 27 56 20 60
-8 4z"/>
<path d="M2645 2879 c0 -21 3 -39 8 -39 10 0 9 67 -1 74 -4 2 -8 -13 -7 -35z"/>
<path d="M3344 2912 c3 -5 0 -13 -6 -15 -9 -4 -10 -6 -1 -6 17 -1 25 16 12 25
-7 4 -9 3 -5 -4z"/>
<path d="M1030 2905 c0 -10 29 -24 34 -17 3 6 -3 12 -14 15 -11 3 -20 4 -20 2z"/>
<path d="M1085 2887 c-13 -10 -15 -16 -6 -21 6 -4 9 -11 6 -16 -3 -5 -1 -11 5
-15 5 -3 10 1 10 9 0 8 -5 18 -11 21 -6 5 -4 12 8 21 10 7 15 14 12 14 -3 0
-13 -6 -24 -13z"/>
<path d="M1135 2893 c3 -7 1 -13 -5 -13 -7 0 -6 -5 2 -14 7 -8 16 -12 21 -9 4
2 7 -10 7 -26 0 -37 -7 -39 -21 -8 -9 20 -9 20 -4 -5 3 -16 0 -28 -8 -31 -8
-4 -8 -6 0 -6 6 -1 9 -10 6 -23 -3 -14 3 -8 16 14 27 48 27 79 0 109 -11 13
-18 18 -14 12z"/>
<path d="M3357 2883 c-3 -5 2 -19 12 -32 17 -23 18 -23 16 -2 -2 25 -20 47
-28 34z"/>
<path d="M951 2838 c0 -21 4 -38 10 -38 5 0 8 -4 4 -9 -3 -5 -1 -12 4 -15 9
-6 9 7 -2 34 -3 8 -8 26 -10 40 -3 17 -5 14 -6 -12z"/>
<path d="M1580 2850 c-6 -11 -8 -20 -6 -20 3 0 10 9 16 20 6 11 8 20 6 20 -3
0 -10 -9 -16 -20z"/>
<path d="M4090 2858 c0 -9 5 -20 10 -23 13 -8 13 5 0 25 -8 13 -10 13 -10 -2z"/>
<path d="M4176 2855 c-9 -26 -7 -32 5 -12 6 10 9 21 6 23 -2 3 -7 -2 -11 -11z"/>
<path d="M4511 2854 c0 -11 3 -14 6 -6 3 7 2 16 -1 19 -3 4 -6 -2 -5 -13z"/>
<path d="M1020 2856 c0 -2 8 -10 18 -17 15 -13 16 -12 3 4 -13 16 -21 21 -21
13z"/>
<path d="M1001 2833 c-1 -18 4 -23 22 -22 15 1 17 3 5 6 -9 2 -19 12 -21 21
-3 12 -5 10 -6 -5z"/>
<path d="M2300 2830 c-12 -8 -12 -10 3 -16 21 -8 35 2 21 16 -5 5 -15 6 -24 0z"/>
<path d="M2742 2831 c-11 -6 -10 -10 4 -15 20 -8 32 0 18 14 -5 5 -15 5 -22 1z"/>
<path d="M4062 2793 c-2 -57 3 -62 34 -37 19 15 18 15 -3 9 -20 -5 -22 -2 -26
37 -3 42 -4 41 -5 -9z"/>
<path d="M4210 2799 c0 -37 -2 -40 -22 -34 -22 6 -22 6 -4 -9 31 -25 36 -20
36 34 0 28 -2 50 -5 50 -3 0 -5 -18 -5 -41z"/>
<path d="M4511 2814 c0 -11 3 -14 6 -6 3 7 2 16 -1 19 -3 4 -6 -2 -5 -13z"/>
<path d="M1085 2810 c3 -5 -3 -15 -15 -22 -11 -7 -20 -17 -20 -22 0 -5 11 1
25 14 26 25 32 40 14 40 -5 0 -7 -4 -4 -10z"/>
<path d="M1856 2805 c-3 -9 -6 -22 -5 -28 0 -7 5 -1 10 12 5 13 8 26 5 28 -2
2 -6 -3 -10 -12z"/>
<path d="M2275 2781 c-7 -12 12 -24 25 -16 11 7 4 25 -10 25 -5 0 -11 -4 -15
-9z"/>
<path d="M2756 2771 c-3 -5 1 -11 9 -15 15 -6 29 7 18 18 -9 9 -21 8 -27 -3z"/>
<path d="M3260 2765 c0 -9 6 -12 15 -9 8 4 15 10 15 15 0 5 -7 9 -15 9 -8 0
-15 -7 -15 -15z"/>
<path d="M1484 2754 c-18 -14 -18 -14 6 -3 31 14 36 19 24 19 -6 0 -19 -7 -30
-16z"/>
<path d="M1580 2764 c0 -2 9 -8 20 -14 11 -6 20 -7 20 -2 0 6 -9 12 -20 15
-11 3 -20 3 -20 1z"/>
<path d="M3375 2760 c-3 -5 -3 -15 1 -21 6 -11 23 6 24 24 0 10 -18 9 -25 -3z"/>
<path d="M2577 2723 c5 -37 5 -38 -11 -15 -21 28 -41 30 -26 2 10 -18 8 -20
-17 -20 -26 -1 -27 -2 -10 -14 28 -22 30 -55 4 -65 -34 -13 -54 -40 -38 -51 9
-5 11 -17 7 -34 -5 -20 -3 -24 9 -20 14 6 21 -11 16 -38 0 -5 4 -8 9 -8 6 0
10 -5 10 -11 0 -5 -5 -7 -12 -3 -7 4 -8 3 -4 -5 4 -6 11 -9 16 -6 8 5 20 -17
20 -40 0 -7 -12 -16 -26 -19 -34 -9 -27 -16 9 -9 15 3 27 11 27 18 0 7 7 18
15 25 8 7 12 17 8 23 -3 5 -1 7 4 4 6 -4 27 5 48 18 20 14 34 21 30 15 -3 -5
-1 -10 4 -10 6 0 11 5 11 11 0 5 4 8 9 4 5 -3 13 0 17 6 4 7 3 9 -3 6 -11 -7
-28 22 -18 31 3 3 5 0 5 -6 0 -7 7 -12 15 -12 10 0 15 10 15 29 0 16 6 32 13
35 9 5 9 7 -1 12 -6 3 -10 10 -7 14 3 5 1 11 -4 15 -6 3 -8 -6 -5 -21 3 -18 1
-23 -7 -18 -7 4 -9 3 -6 -2 3 -6 1 -16 -4 -24 -7 -11 -8 -7 -5 13 3 15 0 27
-5 27 -6 0 -6 7 0 19 6 10 7 22 3 26 -4 4 5 5 21 1 30 -7 36 7 10 24 -13 8
-14 13 -5 16 25 11 12 26 -18 21 -17 -4 -32 -2 -36 5 -4 7 -3 8 4 4 7 -4 12
-2 12 4 0 6 4 9 9 5 5 -3 13 0 17 6 5 9 -1 10 -19 5 -21 -5 -27 -2 -33 16 l-8
23 -7 -25 c-6 -23 -7 -23 -8 -3 -1 30 -21 40 -22 11 0 -13 -5 -32 -10 -43 -7
-16 -8 -13 -4 11 4 21 1 35 -9 43 -13 11 -14 8 -9 -26z m63 -63 c9 -6 20 -5
29 3 12 10 13 9 6 -3 -5 -8 -10 -26 -11 -40 -2 -38 -3 -40 -19 -40 -8 0 -15
-5 -15 -10 0 -6 -12 -9 -27 -7 -23 3 -30 11 -37 40 -14 55 27 87 74 57z m-124
-69 c-19 -7 -19 -8 -1 -14 10 -4 15 -10 12 -14 -4 -3 -1 -13 6 -21 9 -13 9
-14 0 -8 -8 4 -13 2 -13 -6 0 -10 -3 -9 -10 2 -5 9 -5 19 1 26 6 8 4 14 -6 18
-20 7 -10 26 13 25 14 0 14 -2 -2 -8z m141 -83 c-3 -8 -6 -5 -6 6 -1 11 2 17
5 13 3 -3 4 -12 1 -19z m-63 -20 c-3 -5 -12 -4 -20 3 -19 16 -18 18 6 12 11
-3 17 -9 14 -15z m-37 -30 c-3 -7 -5 -2 -5 12 0 14 2 19 5 13 2 -7 2 -19 0
-25z"/>
<path d="M2582 2637 c10 -8 14 -18 10 -22 -4 -5 -1 -5 6 -1 17 10 15 14 -10
26 -21 10 -21 10 -6 -3z"/>
<path d="M2620 2621 c0 -10 26 -9 36 2 4 4 -2 7 -14 7 -12 0 -22 -4 -22 -9z"/>
<path d="M2605 2590 c-3 -5 -2 -10 4 -10 5 0 13 5 16 10 3 6 2 10 -4 10 -5 0
-13 -4 -16 -10z"/>
<path d="M3317 2754 c-8 -8 1 -24 14 -24 5 0 9 7 9 15 0 15 -12 20 -23 9z"/>
<path d="M3831 2734 c0 -11 3 -14 6 -6 3 7 2 16 -1 19 -3 4 -6 -2 -5 -13z"/>
<path d="M2310 2725 c0 -9 5 -15 11 -13 6 2 11 8 11 13 0 5 -5 11 -11 13 -6 2
-11 -4 -11 -13z"/>
<path d="M2810 2725 c0 -9 6 -12 15 -9 8 4 15 10 15 15 0 5 -7 9 -15 9 -8 0
-15 -7 -15 -15z"/>
<path d="M4086 2723 c-3 -6 0 -13 6 -15 12 -4 -12 -134 -44 -235 -14 -48 -23
-63 -37 -63 -10 0 -29 -9 -42 -21 l-24 -20 28 17 c35 21 102 14 130 -15 11
-11 24 -39 28 -63 6 -42 7 -43 8 -7 1 23 -7 46 -23 68 l-25 33 18 47 c10 25
29 93 42 151 13 58 27 107 31 108 4 2 8 7 8 12 0 13 -99 17 -104 3z"/>
<path d="M1500 2720 c0 -5 20 -10 45 -10 25 0 45 5 45 10 0 6 -20 10 -45 10
-25 0 -45 -4 -45 -10z"/>
<path d="M1832 2700 c0 -14 2 -19 5 -12 2 6 2 18 0 25 -3 6 -5 1 -5 -13z"/>
<path d="M1897 2629 c2 -124 2 -121 13 -114 5 3 7 0 4 -8 -10 -26 56 -138 120
-203 54 -56 59 -64 39 -64 -87 0 -162 83 -215 240 -13 38 -17 44 -13 20 9 -56
76 -189 111 -220 18 -15 47 -32 66 -38 46 -14 108 -22 108 -14 0 4 -14 19 -32
34 l-33 28 52 -28 c28 -15 55 -24 58 -20 4 3 -20 46 -53 95 -56 82 -122 201
-122 218 0 5 -14 39 -32 77 -25 54 -36 68 -49 65 -11 -3 -19 1 -21 11 -2 9 -2
-27 -1 -79z"/>
<path d="M1065 2700 c-16 -7 -17 -9 -3 -9 9 -1 20 4 23 9 7 11 7 11 -20 0z"/>
<path d="M3843 2630 c0 -36 2 -50 4 -32 2 17 2 47 0 65 -2 17 -4 3 -4 -33z"/>
<path d="M1883 2630 c0 -25 2 -35 4 -22 2 12 2 32 0 45 -2 12 -4 2 -4 -23z"/>
<path d="M3693 2648 c-31 -49 -55 -134 -49 -178 2 -14 4 -33 5 -44 2 -27 27
-3 56 53 40 80 46 115 24 150 -21 35 -24 36 -36 19z"/>
<path d="M2360 2631 c13 -25 33 -28 28 -4 -2 10 -11 19 -21 21 -16 3 -17 1 -7
-17z"/>
<path d="M2490 2635 l-25 -14 35 0 c19 0 29 3 22 6 -6 2 -10 9 -6 14 7 12 4
11 -26 -6z"/>
<path d="M3030 2634 c0 -8 5 -12 10 -9 6 4 8 11 5 16 -9 14 -15 11 -15 -7z"/>
<path d="M1034 2631 c83 -12 119 -78 81 -151 -13 -25 -13 -30 -2 -30 8 0 14 6
15 13 13 85 13 101 1 124 -18 33 -59 53 -106 52 -36 -2 -35 -2 11 -8z"/>
<path d="M2427 2626 c-6 -15 1 -26 15 -26 11 0 10 27 -1 34 -5 3 -11 0 -14 -8z"/>
<path d="M4813 2605 c0 -22 2 -30 4 -17 2 12 2 30 0 40 -3 9 -5 -1 -4 -23z"/>
<path d="M3230 2625 c0 -11 50 -36 60 -30 17 11 -8 35 -36 35 -13 0 -24 -2
-24 -5z"/>
<path d="M3180 2610 c-11 -8 -8 -9 13 -4 27 6 40 -10 15 -19 -7 -2 2 -6 20 -9
37 -5 41 4 10 26 -26 19 -37 20 -58 6z"/>
<path d="M980 2578 c-11 -12 -20 -31 -20 -43 0 -24 26 -65 42 -65 6 0 4 8 -5
18 -36 39 -14 98 38 105 l30 4 -32 2 c-22 1 -39 -6 -53 -21z"/>
<path d="M2315 2590 c-3 -5 -4 -10 -1 -10 2 0 11 -3 20 -6 11 -4 16 -1 16 10
0 18 -25 22 -35 6z"/>
<path d="M1832 2565 c0 -16 2 -22 5 -12 2 9 2 23 0 30 -3 6 -5 -1 -5 -18z"/>
<path d="M2905 2551 l-40 -6 33 -8 c23 -4 42 -2 60 8 30 16 20 17 -53 6z"/>
<path d="M4802 2535 c0 -16 2 -22 5 -12 2 9 2 23 0 30 -3 6 -5 -1 -5 -18z"/>
<path d="M3831 2524 c0 -11 3 -14 6 -6 3 7 2 16 -1 19 -3 4 -6 -2 -5 -13z"/>
<path d="M2905 2510 c-12 -5 12 -6 60 -3 44 3 82 7 84 9 9 8 -125 2 -144 -6z"/>
<path d="M3153 2503 c15 -2 37 -2 50 0 12 2 0 4 -28 4 -27 0 -38 -2 -22 -4z"/>
<path d="M3732 2447 c-38 -73 -100 -148 -155 -188 l-40 -29 48 0 c73 0 130 32
171 96 34 53 74 144 74 167 0 7 -11 -13 -23 -43 -56 -137 -111 -197 -187 -207
l-43 -6 59 59 c51 51 144 198 132 209 -2 2 -18 -24 -36 -58z"/>
<path d="M1069 2483 c-13 -16 -12 -17 4 -4 9 7 17 15 17 17 0 8 -8 3 -21 -13z"/>
<path d="M4773 2398 c-12 -56 -21 -104 -19 -106 6 -5 49 185 45 197 -2 6 -14
-35 -26 -91z"/>
<path d="M2906 2481 c-15 -6 -16 -10 -7 -15 7 -5 18 -3 24 3 14 14 47 14 47 0
0 -5 4 -8 9 -5 5 3 12 -1 15 -10 3 -8 10 -13 15 -9 5 3 12 1 16 -5 3 -5 -2
-10 -11 -10 -10 0 -15 -3 -11 -6 3 -4 14 -4 23 0 13 5 14 9 4 21 -7 9 -15 13
-17 11 -3 -2 -13 4 -24 15 -20 20 -50 23 -83 10z"/>
<path d="M1025 2460 c4 -6 11 -8 16 -5 14 9 11 15 -7 15 -8 0 -12 -5 -9 -10z"/>
<path d="M2758 2428 c10 -21 18 -29 20 -20 2 8 -5 24 -17 35 l-20 21 17 -36z"/>
<path d="M1045 2419 c-22 -16 -44 -34 -48 -38 -23 -23 130 -393 222 -537 36
-57 41 -61 67 -55 l29 6 -28 3 c-49 6 -173 240 -248 470 l-33 103 44 39 c54
47 51 51 -5 9z"/>
<path d="M1608 2443 c6 -2 18 -2 25 0 6 3 1 5 -13 5 -14 0 -19 -2 -12 -5z"/>
<path d="M2723 2425 c8 -16 17 -37 20 -45 4 -10 6 -8 6 6 1 12 -8 32 -19 45
l-21 24 14 -30z"/>
<path d="M1545 2410 c-16 -16 -27 -31 -24 -33 2 -1 18 12 36 30 17 18 28 33
24 33 -4 0 -20 -13 -36 -30z"/>
<path d="M2665 2394 c0 -24 3 -44 8 -44 9 0 9 61 -1 77 -4 7 -7 -8 -7 -33z"/>
<path d="M2696 2415 c4 -16 7 -36 7 -42 0 -7 4 -13 9 -13 12 0 9 21 -8 55
l-14 30 6 -30z"/>
<path d="M4501 2414 c0 -11 3 -14 6 -6 3 7 2 16 -1 19 -3 4 -6 -2 -5 -13z"/>
<path d="M1088 2413 c6 -2 18 -2 25 0 6 3 1 5 -13 5 -14 0 -19 -2 -12 -5z"/>
<path d="M1590 2392 c-20 -11 -43 -34 -54 -56 l-18 -37 28 -30 c16 -17 22 -29
14 -29 -7 0 -11 -3 -7 -6 8 -8 77 15 77 27 0 5 -11 4 -23 -2 -20 -9 -28 -7
-50 14 -24 22 -26 27 -16 55 7 21 24 37 53 51 69 34 95 28 121 -29 l15 -35 -2
40 c-2 22 -8 40 -15 40 -6 0 -15 3 -19 8 -13 13 -69 7 -104 -11z"/>
<path d="M3386 2386 c3 -8 13 -17 22 -21 13 -5 13 -2 -3 15 -21 24 -26 25 -19
6z"/>
<path d="M3970 2361 c-8 -6 -17 -8 -21 -5 -4 2 -11 -1 -15 -7 -4 -8 -3 -9 4
-5 8 5 11 0 9 -15 -1 -12 4 -24 13 -26 13 -4 13 -3 1 5 -12 9 -12 13 -2 26 16
19 45 21 38 4 -3 -7 -8 -20 -11 -29 -5 -11 4 -20 30 -32 20 -10 39 -15 42 -12
3 3 0 5 -6 5 -8 0 -8 8 -1 30 6 17 17 30 24 30 21 0 38 -28 33 -55 -3 -13 -1
-22 3 -19 12 7 11 0 -3 -31 -6 -14 -14 -24 -17 -22 -46 24 -133 61 -158 67
-26 6 -33 5 -33 -6 0 -10 7 -13 24 -8 13 3 26 2 29 -3 3 -5 -15 -45 -40 -91
-40 -73 -47 -81 -64 -72 -10 6 -19 20 -19 30 0 28 -15 25 -34 -7 l-17 -28 20
24 c15 16 21 19 21 8 0 -8 24 -32 53 -53 28 -20 44 -28 34 -17 -16 18 -16 22
-2 33 8 7 35 41 60 76 26 35 51 64 56 64 20 0 69 -31 64 -40 -4 -6 -4 -10 -1
-10 15 0 44 78 39 105 -12 67 -102 117 -153 86z"/>
<path d="M1512 2340 c0 -14 2 -19 5 -12 2 6 2 18 0 25 -3 6 -5 1 -5 -13z"/>
<path d="M2315 2340 c-3 -5 -4 -10 -1 -10 2 0 11 -3 20 -6 11 -4 16 -1 16 10
0 18 -25 22 -35 6z"/>
<path d="M2755 2340 c-3 -5 -4 -10 -1 -10 2 0 11 -3 20 -6 11 -4 16 -1 16 10
0 18 -25 22 -35 6z"/>
<path d="M2970 2336 c0 -2 7 -7 16 -10 8 -3 12 -2 9 4 -6 10 -25 14 -25 6z"/>
<path d="M3916 2315 c-9 -26 -7 -32 5 -12 6 10 9 21 6 23 -2 3 -7 -2 -11 -11z"/>
<path d="M2935 2310 c3 -5 8 -10 11 -10 2 0 4 5 4 10 0 6 -5 10 -11 10 -5 0
-7 -4 -4 -10z"/>
<path d="M1705 2301 c-11 -5 -23 -7 -27 -4 -5 2 -8 -1 -8 -6 0 -15 20 -13 50
4 27 15 18 19 -15 6z"/>
<path d="M2296 2291 c-3 -5 0 -11 8 -14 15 -6 26 1 26 15 0 11 -27 10 -34 -1z"/>
<path d="M2776 2281 c-3 -5 1 -11 9 -15 15 -6 29 7 18 18 -9 9 -21 8 -27 -3z"/>
<path d="M3280 2275 c0 -9 6 -12 15 -9 8 4 15 10 15 15 0 5 -7 9 -15 9 -8 0
-15 -7 -15 -15z"/>
<path d="M1751 2258 c1 -18 2 -19 6 -5 2 9 9 14 15 11 7 -4 8 -2 4 4 -12 20
-26 13 -25 -10z"/>
<path d="M3397 2274 c-3 -3 -3 -12 0 -20 4 -11 9 -12 19 -3 8 6 11 15 8 20 -6
10 -18 12 -27 3z"/>
<path d="M4722 2213 c-12 -37 -20 -69 -18 -71 2 -2 14 27 26 63 12 36 20 68
18 70 -2 3 -14 -26 -26 -62z"/>
<path d="M2842 2258 c-17 -17 -15 -39 2 -32 8 3 14 14 13 25 -2 23 0 22 -15 7z"/>
<path d="M3337 2264 c-3 -3 -3 -12 0 -20 4 -11 9 -12 19 -3 8 6 11 15 8 20 -6
10 -18 12 -27 3z"/>
<path d="M2326 2234 c-9 -22 -8 -23 14 -17 11 3 20 12 20 19 0 19 -26 18 -34
-2z"/>
<path d="M2160 2229 c-19 -5 -14 -7 23 -8 26 -1 47 1 47 3 0 8 -46 12 -70 5z"/>
<path d="M811 2214 c0 -11 3 -14 6 -6 3 7 2 16 -1 19 -3 4 -6 -2 -5 -13z"/>
<path d="M1785 2213 c-11 -2 -31 -13 -45 -25 l-25 -20 29 17 c15 9 36 15 45
12 11 -2 18 1 18 9 0 8 -1 13 -1 13 -1 -1 -10 -4 -21 -6z"/>
<path d="M2244 2196 c-5 -11 -20 -26 -34 -33 -16 -8 -19 -13 -9 -13 9 0 23 7
30 16 7 9 21 19 30 23 13 5 14 9 5 17 -9 9 -15 6 -22 -10z"/>
<path d="M3422 2186 c7 -8 15 -12 17 -11 5 6 -10 25 -20 25 -5 0 -4 -6 3 -14z"/>
<path d="M4416 2175 c-9 -26 -7 -32 5 -12 6 10 9 21 6 23 -2 3 -7 -2 -11 -11z"/>
<path d="M1590 2164 c0 -4 9 -22 21 -40 22 -36 39 -44 39 -20 0 15 37 46 55
46 6 0 18 -12 27 -27 10 -16 18 -23 18 -18 0 6 -10 22 -23 37 l-22 28 -32 -21
c-18 -12 -33 -28 -33 -37 0 -11 -7 -7 -19 12 -11 17 -18 33 -15 38 3 4 0 8 -5
8 -6 0 -11 -3 -11 -6z"/>
<path d="M3458 2158 c5 -5 16 -8 23 -6 8 3 3 7 -10 11 -17 4 -21 3 -13 -5z"/>
<path d="M3530 2160 c-21 -7 -21 -8 -5 -9 11 0 27 4 35 9 18 11 5 11 -30 0z"/>
<path d="M2138 2153 c7 -3 16 -2 19 1 4 3 -2 6 -13 5 -11 0 -14 -3 -6 -6z"/>
<path d="M2408 2133 c7 -3 16 -2 19 1 4 3 -2 6 -13 5 -11 0 -14 -3 -6 -6z"/>
<path d="M840 2125 c0 -5 5 -17 10 -25 5 -8 10 -10 10 -5 0 6 -5 17 -10 25 -5
8 -10 11 -10 5z"/>
<path d="M2318 2123 c7 -3 16 -2 19 1 4 3 -2 6 -13 5 -11 0 -14 -3 -6 -6z"/>
<path d="M2508 2123 c7 -3 16 -2 19 1 4 3 -2 6 -13 5 -11 0 -14 -3 -6 -6z"/>
<path d="M3348 2123 c7 -3 16 -2 19 1 4 3 -2 6 -13 5 -11 0 -14 -3 -6 -6z"/>
<path d="M4686 2115 c-9 -26 -7 -32 5 -12 6 10 9 21 6 23 -2 3 -7 -2 -11 -11z"/>
<path d="M2233 2113 c15 -2 37 -2 50 0 12 2 0 4 -28 4 -27 0 -38 -2 -22 -4z"/>
<path d="M3095 2108 c-36 -20 -126 -112 -144 -148 -26 -50 -33 -92 -21 -124
10 -27 10 -28 -22 -20 -41 11 -93 11 -134 2 l-31 -7 5 48 c5 61 -21 114 -91
185 -28 28 -45 43 -38 34 24 -32 3 -41 -83 -35 -58 3 -74 2 -56 -5 14 -5 57
-8 97 -6 64 2 75 0 97 -21 34 -32 66 -103 66 -146 0 -47 -39 -85 -86 -85 -34
0 -54 20 -54 55 0 15 1 15 16 1 23 -23 51 -20 70 9 15 23 15 27 -3 62 -22 43
-90 90 -143 98 -26 5 -22 1 19 -13 66 -24 110 -66 117 -114 6 -37 -10 -54 -41
-42 -24 9 -19 53 8 64 15 6 17 9 6 9 -24 1 -57 -30 -64 -59 -8 -35 27 -80 63
-80 15 0 51 9 80 20 67 26 147 26 219 0 71 -25 105 -25 126 -2 36 39 6 123
-42 121 -10 0 -8 -4 7 -9 24 -10 29 -39 10 -58 -17 -17 -36 -15 -47 7 -17 31
19 90 75 124 27 15 38 25 24 22 -57 -16 -120 -85 -120 -133 0 -44 58 -58 84
-20 l16 22 0 -25 c0 -55 -65 -77 -114 -38 -21 17 -26 29 -26 65 0 50 26 108
64 145 22 21 32 23 98 21 40 -2 84 1 98 7 19 7 8 8 -41 4 -37 -3 -79 -3 -94 1
-23 6 -25 9 -13 23 7 9 31 24 53 34 22 10 33 19 25 18 -8 0 -24 -5 -35 -11z"/>
<path d="M3398 2113 c12 -2 32 -2 45 0 12 2 2 4 -23 4 -25 0 -35 -2 -22 -4z"/>
<path d="M3967 2113 c-2 -5 3 -19 10 -33 14 -23 14 -24 10 -2 -6 25 5 29 23 7
10 -12 4 -26 -34 -77 -25 -34 -46 -55 -46 -46 0 28 -147 128 -164 111 -12 -12
-6 -25 10 -19 8 3 25 1 36 -5 19 -10 19 -12 -18 -50 l-38 -39 -21 20 c-12 11
-26 20 -31 20 -12 0 -114 -102 -114 -114 0 -4 6 -6 14 -3 13 5 36 -10 36 -24
0 -4 -19 -21 -42 -38 -33 -24 -44 -28 -55 -19 -8 6 0 -12 18 -40 32 -52 50
-71 29 -31 -7 11 -10 22 -8 23 2 1 22 17 44 34 23 18 46 32 51 32 19 0 54 -47
47 -63 -12 -31 15 -17 69 36 29 28 43 44 31 33 -13 -10 -28 -15 -36 -10 -7 4
-10 3 -5 -1 4 -5 -2 -19 -14 -31 l-21 -23 -38 48 c-20 26 -51 58 -68 73 -27
23 -29 27 -15 41 14 13 18 12 43 -16 23 -27 30 -29 43 -18 9 7 13 20 10 29 -4
12 2 9 21 -8 15 -14 26 -20 24 -14 -2 6 19 34 45 63 l48 51 30 -17 c16 -9 29
-25 29 -35 0 -32 18 -19 66 47 39 55 44 68 33 81 -17 20 -47 36 -52 27z m-236
-139 c12 -15 11 -16 -9 -10 -15 5 -32 2 -50 -10 l-27 -17 24 27 c28 30 43 33
62 10z m-1 -24 c5 0 -2 -12 -15 -26 -21 -22 -27 -25 -40 -14 -14 12 -14 15 2
32 9 10 23 16 31 13 7 -3 18 -5 22 -5z"/>
<path d="M1776 2064 c-36 -24 -66 -50 -66 -57 -1 -6 -12 2 -27 18 l-26 30 21
-35 c24 -40 42 -50 42 -23 0 21 113 98 141 96 11 -1 19 2 19 5 0 21 -44 6
-104 -34z"/>
<path d="M2570 2106 c0 -2 7 -7 16 -10 8 -3 12 -2 9 4 -6 10 -25 14 -25 6z"/>
<path d="M3500 2100 c-8 -5 -10 -10 -5 -10 6 0 17 5 25 10 8 5 11 10 5 10 -5
0 -17 -5 -25 -10z"/>
<path d="M2180 2090 c8 -5 22 -9 30 -9 10 0 8 3 -5 9 -27 12 -43 12 -25 0z"/>
<path d="M4613 1951 c-34 -69 -55 -117 -47 -106 19 25 117 225 112 230 -1 1
-31 -54 -65 -124z"/>
<path d="M2298 2053 c7 -3 16 -2 19 1 4 3 -2 6 -13 5 -11 0 -14 -3 -6 -6z"/>
<path d="M3368 2053 c7 -3 16 -2 19 1 4 3 -2 6 -13 5 -11 0 -14 -3 -6 -6z"/>
<path d="M1923 2036 c4 -10 -7 -23 -29 -37 -19 -12 -33 -23 -30 -26 2 -3 15 3
28 11 14 9 28 14 31 11 4 -3 5 -2 3 1 -3 3 1 12 7 19 10 11 16 10 32 -3 13
-11 12 -7 -4 11 -26 29 -47 36 -38 13z"/>
<path d="M2338 2043 c7 -3 16 -2 19 1 4 3 -2 6 -13 5 -11 0 -14 -3 -6 -6z"/>
<path d="M3328 2043 c7 -3 16 -2 19 1 4 3 -2 6 -13 5 -11 0 -14 -3 -6 -6z"/>
<path d="M2378 2033 c7 -3 16 -2 19 1 4 3 -2 6 -13 5 -11 0 -14 -3 -6 -6z"/>
<path d="M3278 2033 c6 -2 18 -2 25 0 6 3 1 5 -13 5 -14 0 -19 -2 -12 -5z"/>
<path d="M2418 2023 c6 -2 18 -2 25 0 6 3 1 5 -13 5 -14 0 -19 -2 -12 -5z"/>
<path d="M2768 2019 c-36 -14 -41 -32 -21 -82 24 -63 40 -77 88 -77 48 0 64
14 89 79 17 43 17 45 -3 64 -23 24 -110 33 -153 16z"/>
<path d="M3228 2023 c6 -2 18 -2 25 0 6 3 1 5 -13 5 -14 0 -19 -2 -12 -5z"/>
<path d="M2468 2013 c6 -2 18 -2 25 0 6 3 1 5 -13 5 -14 0 -19 -2 -12 -5z"/>
<path d="M3150 2010 c-20 -6 -21 -8 -5 -8 11 0 31 4 45 8 20 6 21 8 5 8 -11 0
-31 -4 -45 -8z"/>
<path d="M1915 1906 l-50 -85 -30 27 -29 27 25 -34 c22 -30 62 -59 46 -34 -7
11 76 153 100 171 14 10 14 12 2 12 -8 0 -37 -38 -64 -84z"/>
<path d="M1746 1941 c-3 -4 7 -19 22 -32 l27 -24 -23 26 c-12 14 -19 29 -15
32 3 4 4 7 0 7 -3 0 -8 -4 -11 -9z"/>
<path d="M1802 1938 c-8 -10 1 -12 41 -9 39 3 47 6 32 12 -30 12 -61 10 -73
-3z"/>
<path d="M2034 1906 c0 -13 4 -22 9 -19 10 6 9 43 -2 43 -5 0 -8 -11 -7 -24z"/>
<path d="M3803 1871 c1 -21 5 -37 9 -34 9 5 6 73 -4 73 -3 0 -5 -18 -5 -39z"/>
<path d="M2094 1893 c4 -7 2 -13 -5 -13 -13 0 -33 -22 -50 -55 -6 -11 3 -5 19
14 l29 34 16 -23 16 -23 -3 27 c-1 15 -9 32 -16 39 -10 9 -11 9 -6 0z"/>
<path d="M3725 1876 c-15 -11 -15 -13 -1 -25 14 -12 16 -11 10 4 -6 15 -3 17
14 13 24 -7 31 7 8 15 -8 3 -22 0 -31 -7z"/>
<path d="M2136 1847 c3 -10 9 -15 12 -12 3 3 0 11 -7 18 -10 9 -11 8 -5 -6z"/>
<path d="M3503 1837 c-3 -6 -1 -7 5 -3 7 4 12 2 12 -4 0 -6 5 -8 10 -5 6 3 10
10 10 14 0 11 -30 9 -37 -2z"/>
<path d="M4530 1800 c-6 -11 -8 -20 -6 -20 3 0 10 9 16 20 6 11 8 20 6 20 -3
0 -10 -9 -16 -20z"/>
<path d="M1449 1796 c13 -7 30 -24 37 -37 25 -45 16 -84 -32 -142 -35 -41 -32
-97 5 -139 26 -29 36 -33 78 -33 26 1 52 -4 56 -10 5 -6 7 -3 3 8 -3 9 -1 17
4 17 15 0 40 56 40 91 0 36 -48 98 -69 91 -9 -3 -11 0 -6 8 6 10 -1 12 -33 7
-38 -5 -41 -3 -32 13 6 11 24 21 43 23 l32 4 -32 1 c-28 2 -33 6 -33 28 0 27
-49 84 -72 84 -7 -1 -2 -7 11 -14z m138 -175 c24 -12 33 -32 33 -71 0 -42 -9
-59 -42 -76 -38 -20 -82 -10 -108 23 -30 38 -26 78 12 117 33 35 51 36 105 7z"/>
<path d="M2132 1790 c-7 -11 -22 -20 -34 -20 -12 0 -19 -3 -15 -6 11 -11 55 5
61 22 9 24 2 26 -12 4z"/>
<path d="M1997 1771 c-9 -16 -17 -33 -17 -38 0 -4 9 7 20 25 22 35 39 35 41
-1 1 -18 2 -18 6 -4 4 17 -12 47 -26 47 -4 0 -14 -13 -24 -29z"/>
<path d="M2210 1791 c0 -3 4 -12 9 -19 6 -11 9 -9 13 5 3 12 0 20 -8 20 -8 0
-14 -3 -14 -6z"/>
<path d="M3469 1791 c41 -11 35 -29 -17 -55 -54 -27 -65 -25 -56 10 4 13 2 24
-2 24 -13 0 -41 -20 -29 -20 6 0 23 -34 39 -75 28 -74 42 -97 31 -52 -5 18 2
28 40 55 25 17 50 32 55 32 16 0 41 -46 34 -64 -8 -22 8 -20 50 5 43 25 45 35
9 42 -24 4 -25 3 -11 -7 15 -11 15 -13 -3 -24 -23 -15 -29 -15 -29 -2 0 6 -19
39 -42 75 -35 52 -48 64 -68 64 l-25 -1 24 -7z"/>
<path d="M2274 1773 c4 -7 3 -13 -2 -13 -10 0 -82 -131 -82 -146 0 -5 17 23
38 61 20 39 42 70 49 70 21 0 24 12 6 26 -11 9 -14 10 -9 2z"/>
<path d="M1430 1766 c0 -2 8 -10 18 -17 15 -13 16 -12 3 4 -13 16 -21 21 -21
13z"/>
<path d="M4485 1728 c-16 -24 -22 -38 -14 -31 15 12 53 73 46 73 -2 0 -17 -19
-32 -42z"/>
<path d="M1945 1736 c17 -14 37 -26 45 -26 15 0 7 6 -51 38 -18 10 -16 7 6
-12z"/>
<path d="M2315 1739 c-4 -6 -5 -12 -2 -15 2 -3 7 2 10 11 7 17 1 20 -8 4z"/>
<path d="M2070 1695 c0 -26 -4 -33 -14 -29 -8 3 -17 12 -19 20 -4 10 -4 9 -3
-2 0 -9 10 -23 22 -30 19 -13 20 -12 23 31 1 25 -1 45 -4 45 -3 0 -5 -16 -5
-35z"/>
<path d="M3330 1711 l24 -19 -34 -15 c-37 -15 -58 -4 -39 19 6 8 5 13 -4 17
-15 6 -16 -9 -3 -55 9 -32 14 -33 62 -13 30 12 34 18 29 37 -10 32 -25 48 -44
48 -12 0 -10 -5 9 -19z"/>
<path d="M2330 1711 c-8 -6 -18 -7 -22 -5 -4 3 -8 -2 -8 -11 0 -12 4 -14 19
-5 11 5 29 10 41 10 12 0 18 5 15 10 -8 12 -25 13 -45 1z"/>
<path d="M3200 1684 c-11 -13 -10 -16 8 -21 36 -9 25 -20 -36 -35 -54 -14 -60
-13 -80 2 -12 10 -18 20 -15 24 4 3 -5 6 -19 6 -26 0 -44 -15 -63 -53 -6 -12
-17 -23 -25 -24 -8 -1 -37 -5 -63 -8 -39 -5 -46 -9 -37 -20 6 -8 10 -26 8 -42
-3 -25 -7 -28 -38 -28 -35 0 -35 1 -35 43 l0 43 -35 -6 c-19 -4 -41 -13 -49
-20 -12 -12 -11 -16 13 -25 15 -5 32 -10 38 -10 5 0 19 -11 30 -25 23 -30 44
-32 72 -6 13 11 44 21 78 25 l57 6 6 -33 c6 -31 9 -33 54 -35 56 -2 83 19 85
68 1 27 6 31 51 45 46 13 51 13 63 -3 7 -9 10 -27 7 -39 -3 -13 -1 -23 5 -23
21 0 80 29 80 40 0 7 -9 5 -22 -4 -12 -9 -27 -16 -33 -16 -5 0 -23 34 -39 76
-16 42 -35 82 -43 89 -10 10 -10 14 0 18 7 4 8 6 1 6 -6 1 -17 -6 -24 -15z
m-166 -47 c-3 -9 4 -13 22 -12 15 0 29 -6 32 -14 3 -10 -3 -13 -27 -9 -17 2
-31 3 -31 1 0 -2 24 -14 54 -27 64 -29 78 -55 49 -95 -18 -23 -73 -46 -60 -24
3 5 -3 15 -15 22 -11 7 -18 9 -15 4 3 -5 2 -15 -4 -23 -7 -13 -9 -12 -9 2 0 9
-3 24 -7 34 -4 12 -3 15 5 10 7 -4 12 -2 12 3 0 12 29 14 54 5 18 -7 22 -40 6
-47 -6 -3 -5 -4 2 -3 7 2 13 13 13 26 0 18 -11 30 -50 49 -40 21 -51 32 -53
54 -2 16 2 35 9 43 14 17 20 18 13 1z"/>
<path d="M1611 1667 c45 -29 71 -82 66 -128 -4 -34 -3 -36 22 -30 18 3 21 6 9
9 -12 2 -18 13 -18 33 0 17 -7 43 -15 58 -15 31 -70 81 -87 81 -6 0 4 -10 23
-23z"/>
<path d="M2410 1679 c0 -5 5 -7 12 -3 6 4 18 -2 26 -12 14 -18 14 -18 8 -1 -3
10 -6 21 -6 23 0 2 -9 4 -20 4 -11 0 -20 -5 -20 -11z"/>
<path d="M2480 1657 c0 -9 -4 -17 -10 -17 -5 0 -10 -4 -10 -10 0 -5 4 -10 9
-10 12 0 25 39 17 47 -3 4 -6 -1 -6 -10z"/>
<path d="M2517 1660 c6 -8 19 -43 28 -78 10 -34 20 -61 22 -58 8 8 -29 121
-45 136 -14 13 -15 13 -5 0z"/>
<path d="M3112 1640 c0 -14 2 -19 5 -12 2 6 2 18 0 25 -3 6 -5 1 -5 -13z"/>
<path d="M2630 1641 c0 -5 7 -12 16 -15 14 -5 15 -4 4 9 -14 17 -20 19 -20 6z"/>
<path d="M3328 1628 c-29 -10 -35 -32 -17 -58 9 -13 10 -12 5 2 -4 13 3 22 24
33 39 20 39 20 52 -16 6 -16 12 -28 15 -26 8 9 -26 77 -39 76 -7 0 -25 -5 -40
-11z"/>
<path d="M2120 1622 c0 -15 78 -53 85 -42 3 5 5 10 3 11 -2 0 -11 2 -21 4 -10
2 -29 11 -43 19 -13 9 -24 13 -24 8z"/>
<path d="M2376 1587 c-9 -23 -16 -49 -16 -56 0 -8 -6 -11 -16 -7 -9 3 -20 6
-26 6 -7 0 -6 5 1 14 10 12 8 13 -8 9 -31 -8 -26 -21 15 -38 49 -20 55 -19 49
8 -3 12 1 40 10 61 9 21 14 40 12 42 -2 3 -12 -15 -21 -39z"/>
<path d="M2670 1615 c-7 -9 -15 -13 -18 -10 -3 3 -16 -5 -29 -17 -15 -14 -23
-17 -23 -8 0 7 -3 11 -6 7 -3 -3 -3 -11 1 -17 5 -8 13 -6 26 6 10 9 19 13 19
7 0 -5 -9 -18 -20 -28 -11 -10 -20 -25 -20 -34 1 -12 3 -11 12 4 6 11 29 39
51 63 23 23 36 42 30 42 -6 0 -16 -7 -23 -15z"/>
<path d="M3460 1581 c0 -5 -17 -16 -37 -24 -21 -9 -32 -16 -25 -16 24 -1 83
29 77 39 -8 12 -15 13 -15 1z"/>
<path d="M1758 1485 c37 -31 43 -62 26 -134 -7 -31 -13 -63 -14 -71 0 -35 280
-181 465 -242 l121 -41 27 27 c15 15 27 37 27 49 0 18 -3 17 -16 -10 -9 -18
-22 -33 -30 -33 -7 0 -66 14 -131 30 -120 31 -279 101 -394 174 -56 36 -57 37
-49 72 9 41 36 66 64 60 14 -4 16 -2 8 6 -9 9 -18 8 -38 -1 -26 -12 -26 -12
-20 24 8 39 -5 71 -38 97 -33 27 -41 21 -8 -7z"/>
<path d="M2551 1499 c-1 -9 -9 -20 -18 -23 -24 -10 -4 -24 45 -32 28 -4 42 -3
42 4 0 6 -6 9 -14 6 -9 -4 -13 2 -11 18 1 13 0 15 -2 6 -3 -11 -14 -18 -30
-18 -21 0 -23 2 -13 15 6 8 10 20 7 27 -4 9 -6 7 -6 -3z"/>
<path d="M1646 1465 c-21 -32 -24 -57 -9 -87 13 -26 57 -48 70 -34 4 3 -3 6
-14 6 -25 0 -53 30 -53 56 0 31 28 62 58 66 26 3 26 4 -5 9 -26 4 -36 1 -47
-16z"/>
<path d="M1880 1399 c46 -31 110 -66 99 -55 -10 11 -130 86 -137 86 -4 0 13
-14 38 -31z"/>
<path d="M1990 1335 c0 -7 141 -77 146 -73 2 2 -30 21 -71 41 -41 20 -75 35
-75 32z"/>
<path d="M2020 1275 c0 -7 81 -47 86 -43 2 3 -17 14 -41 26 -25 12 -45 20 -45
17z"/>
<path d="M2170 1245 c14 -8 30 -14 35 -14 6 0 -1 6 -15 14 -14 8 -29 14 -35
14 -5 0 1 -6 15 -14z"/>
<path d="M2150 1210 c8 -5 20 -10 25 -10 6 0 3 5 -5 10 -8 5 -19 10 -25 10 -5
0 -3 -5 5 -10z"/>
<path d="M2276 1205 c17 -7 44 -16 60 -20 25 -4 24 -3 -6 8 -19 8 -46 17 -60
20 -19 5 -17 3 6 -8z"/>
<path d="M2200 1190 c8 -5 20 -10 25 -10 6 0 3 5 -5 10 -8 5 -19 10 -25 10 -5
0 -3 -5 5 -10z"/>
<path d="M2378 1173 c7 -3 16 -2 19 1 4 3 -2 6 -13 5 -11 0 -14 -3 -6 -6z"/>
<path d="M2420 1163 c5 -2 10 -16 10 -29 0 -13 4 -24 9 -24 14 0 -3 53 -17 56
-7 1 -8 0 -2 -3z"/>
<path d="M2780 1155 c-14 -17 -12 -18 50 -15 52 2 68 9 49 21 -23 14 -86 10
-99 -6z m85 0 c-23 -8 -83 -10 -79 -3 3 4 24 8 47 7 23 0 38 -2 32 -4z"/>
<path d="M2338 1143 c7 -3 16 -2 19 1 4 3 -2 6 -13 5 -11 0 -14 -3 -6 -6z"/>
<path d="M2740 1135 c0 -8 2 -15 4 -15 2 0 6 7 10 15 3 8 1 15 -4 15 -6 0 -10
-7 -10 -15z"/>
<path d="M3158 1143 c7 -3 16 -2 19 1 4 3 -2 6 -13 5 -11 0 -14 -3 -6 -6z"/>
<path d="M2370 1136 c0 -2 7 -7 16 -10 8 -3 12 -2 9 4 -6 10 -25 14 -25 6z"/>
<path d="M3059 1113 c-13 -16 -12 -17 4 -4 9 7 17 15 17 17 0 8 -8 3 -21 -13z"/>
<path d="M2478 1090 c-14 -10 -28 -16 -32 -13 -15 15 -4 -45 14 -74 33 -55
103 -42 124 22 6 20 6 20 -9 0 -12 -15 -25 -19 -58 -16 -23 1 -46 6 -51 11
-17 17 4 61 37 75 18 8 25 14 16 15 -9 0 -28 -9 -41 -20z"/>
<path d="M1810 986 c0 -2 7 -7 16 -10 8 -3 12 -2 9 4 -6 10 -25 14 -25 6z"/>
<path d="M3460 955 c-36 -13 -60 -24 -54 -24 13 -1 134 39 134 45 0 7 -12 4
-80 -21z"/>
<path d="M3351 923 c-7 -3 -63 -16 -125 -29 -61 -12 -100 -23 -86 -23 27 -1
240 45 248 54 7 6 -19 5 -37 -2z"/>
<path d="M2588 863 c12 -2 30 -2 40 0 9 3 -1 5 -23 4 -22 0 -30 -2 -17 -4z"/>
<path d="M3058 863 c12 -2 30 -2 40 0 9 3 -1 5 -23 4 -22 0 -30 -2 -17 -4z"/>
<path d="M2110 850 c8 -5 20 -10 25 -10 6 0 3 5 -5 10 -8 5 -19 10 -25 10 -5
0 -3 -5 5 -10z"/>
<path d="M2743 853 c54 -2 139 -2 190 0 51 1 7 3 -98 3 -104 0 -146 -2 -92 -3z"/>
<path d="M2328 783 c7 -3 16 -2 19 1 4 3 -2 6 -13 5 -11 0 -14 -3 -6 -6z"/>
<path d="M2418 763 c6 -2 18 -2 25 0 6 3 1 5 -13 5 -14 0 -19 -2 -12 -5z"/>
<path d="M2618 733 c7 -3 16 -2 19 1 4 3 -2 6 -13 5 -11 0 -14 -3 -6 -6z"/>
</g>
</svg>
